<svg xmlns="http://www.w3.org/2000/svg" viewBox="0 0 50 50"><g id="Capa_1" data-name="Capa 1"><path d="M31,7a.48.48,0,0,1,0,.66c-.51.93-1,1.87-1.52,2.81a9.66,9.66,0,0,1,5.36,8.42H13.73a9.6,9.6,0,0,1,5.38-8.41l-.64-1.19c-.3-.55-.59-1.11-.9-1.66A.46.46,0,0,1,17.63,7h.3c.12.2.25.39.36.6.48.86.95,1.72,1.43,2.6a11.51,11.51,0,0,1,9.17,0c.21-.37.39-.71.57-1,.41-.72.82-1.43,1.22-2.15Zm-11.5,8.09a.9.9,0,0,0,.89-.85.91.91,0,0,0-.87-.91.89.89,0,0,0-.87.87A.88.88,0,0,0,19.48,15.12Zm9.66,0a.88.88,0,0,0,0-1.76.91.91,0,0,0-.87.88A.89.89,0,0,0,29.14,15.12Z"/><path d="M30.58,37.47v.58c0,1.63,0,3.26,0,4.89A2.25,2.25,0,0,1,28.26,45a2.32,2.32,0,0,1-2.34-2,6.81,6.81,0,0,1-.05-.78V37.5H22.73v.4c0,1.54,0,3.09,0,4.63A2.36,2.36,0,0,1,20.67,45a2.28,2.28,0,0,1-2.59-2.18c0-1.62,0-3.23-.06-4.85v-.5c-.67,0-1.29,0-1.92,0a2.42,2.42,0,0,1-2.25-2.29c0-.15,0-.3,0-.45V19.79H34.75c0,.13,0,.25,0,.37,0,4.87,0,9.74,0,14.61a2.51,2.51,0,0,1-1.93,2.62,13.11,13.11,0,0,1-1.78.08Z"/><path d="M35.72,26.55c0-1.71,0-3.42,0-5.12A2.22,2.22,0,0,1,38,19.34a2.29,2.29,0,0,1,2.37,2c0,.24,0,.47,0,.71,0,3.05,0,6.1,0,9.15a2.43,2.43,0,0,1-1,2.13,2.22,2.22,0,0,1-2.32.25,2.06,2.06,0,0,1-1.36-1.88c0-1.72,0-3.45,0-5.18Z"/><path d="M12.89,26.59c0,1.7,0,3.41,0,5.11a2.23,2.23,0,0,1-2.25,2.11,2.29,2.29,0,0,1-2.36-2.06c0-.23,0-.46,0-.7V21.9a2.39,2.39,0,0,1,1.34-2.33,2.3,2.3,0,0,1,3.31,1.87C12.94,23.15,12.89,24.87,12.89,26.59Z"/></g></svg>