<svg xmlns="http://www.w3.org/2000/svg" viewBox="0 0 50 50"><g id="Capa_1" data-name="Capa 1"><path d="M40.56,18.08a8.15,8.15,0,0,0-4.35,8.12,8.45,8.45,0,0,0,5.49,7.44,1.16,1.16,0,0,0-.06.15,28.86,28.86,0,0,1-2,3.9,33,33,0,0,1-2.17,3.09,10.92,10.92,0,0,1-2.52,2.37,4.83,4.83,0,0,1-2,.8,4.74,4.74,0,0,1-2.39-.29c-.53-.21-1-.46-1.58-.68a8.11,8.11,0,0,0-3.65-.61,9,9,0,0,0-3.44.89A7.72,7.72,0,0,1,20,43.9a4.84,4.84,0,0,1-3.43-.58A8.74,8.74,0,0,1,14.3,41.4a25.6,25.6,0,0,1-4-6.25,23.08,23.08,0,0,1-1.7-5.3,20,20,0,0,1-.37-4.56A14.51,14.51,0,0,1,9,21.21a10.2,10.2,0,0,1,2.27-3.74,10.89,10.89,0,0,1,2.68-2.14,8.85,8.85,0,0,1,3.6-1.15,8.56,8.56,0,0,1,3.41.41c.82.26,1.64.56,2.46.83a6.92,6.92,0,0,0,2.43.39,6.23,6.23,0,0,0,1.8-.34c.72-.25,1.44-.53,2.17-.78a9.89,9.89,0,0,1,3.62-.54,8.5,8.5,0,0,1,3.76,1.08A11.2,11.2,0,0,1,40.48,18Z"/><path d="M32.32,5a7,7,0,0,1-.17,2.89,9.15,9.15,0,0,1-2.41,4.21,7.92,7.92,0,0,1-3.89,2.16,5.76,5.76,0,0,1-1.45.13c0-.29-.06-.58-.07-.88a6.91,6.91,0,0,1,.63-3,9,9,0,0,1,2.51-3.39,9.53,9.53,0,0,1,4-2C31.75,5.07,32,5.05,32.32,5Z"/></g></svg>