<svg xmlns="http://www.w3.org/2000/svg" viewBox="0 0 50 50"><g id="Capa_1" data-name="Capa 1"><path d="M43,30.11a.82.82,0,0,0-.06.27,2.65,2.65,0,0,1-1.14,1.56,7.2,7.2,0,0,1-2.31,1,17.3,17.3,0,0,1-3,.52c-1.43.14-2.86.1-4.29.1h-.61a.19.19,0,0,0-.18.09,27.56,27.56,0,0,1-2.67,3.13,13.46,13.46,0,0,1-2.22,1.85c-.06,0-.08.07,0,.14a37.53,37.53,0,0,0,3.87,6l.36.42.37.42a1.18,1.18,0,0,1-.3-.09,3.2,3.2,0,0,1-1-.67,19.37,19.37,0,0,1-1.88-2.17c-.81-1.06-1.55-2.17-2.25-3.3-.05-.09-.09-.07-.15,0a11.43,11.43,0,0,1-3.18,1.45,4.79,4.79,0,0,1-1.88.19,1.66,1.66,0,0,1-1.6-1.4,2.43,2.43,0,0,1,.1-1,4.73,4.73,0,0,1,.58-1.44c-.05,0-.08,0-.11,0a13.94,13.94,0,0,1-3.68,1.41,6.57,6.57,0,0,1-2.38.09,2.61,2.61,0,0,1-2.22-2.23,5.83,5.83,0,0,1,.09-2,17.07,17.07,0,0,1,1.41-4.05,29.9,29.9,0,0,1,2.17-3.81.2.2,0,0,0,0-.21,28.87,28.87,0,0,1-1.6-4.81,11.61,11.61,0,0,1-.29-1.86c0-.18,0-.18-.2-.19a23.9,23.9,0,0,0-2.93,0c-.9,0-1.79.1-2.68.21A20.22,20.22,0,0,0,4.94,20l-.23.06s-.07,0-.1,0,0-.07,0-.09l.22-.19a2.63,2.63,0,0,1,1.25-.53c1-.22,2-.4,3-.53a30.09,30.09,0,0,1,3.55-.24c.08,0,.11,0,.11-.12A19,19,0,0,1,13,16.11a7.88,7.88,0,0,1,.65-2.43,2.88,2.88,0,0,1,.7-.92,1.63,1.63,0,0,1,2.15,0,5.23,5.23,0,0,1,1.27,1.54.08.08,0,0,0,0,0c.05,0,0-.05,0-.07a15.6,15.6,0,0,1,.64-4.13,5.86,5.86,0,0,1,1-2,2.64,2.64,0,0,1,3.13-.79A6.4,6.4,0,0,1,24.5,8.7a18,18,0,0,1,2.75,3.4,32.37,32.37,0,0,1,2,3.43c0,.07.07.12.15.12.73.08,1.45.19,2.17.33a24.07,24.07,0,0,1,3.34.86,10.37,10.37,0,0,1,1.34.53c.11.06.16,0,.22-.06.32-.49.61-1,.89-1.51a41.09,41.09,0,0,0,2-4.1,8,8,0,0,0,.55-1.65.45.45,0,0,1,0-.08,1.7,1.7,0,0,1,.11.76,6.18,6.18,0,0,1-.43,1.69c-.34,1-.7,1.95-1.13,2.89-.37.78-.76,1.55-1.14,2.32a.2.2,0,0,1,0,.08c0,.08,0,.12.05.17A13.62,13.62,0,0,1,39.07,19a8.44,8.44,0,0,1,1.66,1.61A3.35,3.35,0,0,1,41.41,22a1.47,1.47,0,0,1-1,1.82,5.26,5.26,0,0,1-2,.33h-.07c0,.05.06.06.1.08a14.53,14.53,0,0,1,3.09,2.55,6.14,6.14,0,0,1,1.27,2.05,3.05,3.05,0,0,1,.16.74s0,0,0,0ZM28.87,32.88l0,0a3.61,3.61,0,0,1-.62.49,6.61,6.61,0,0,1-3,.91c-.3,0-.59,0-.89,0-.09,0-.09,0-.06.1s.12.26.17.39c.31.7.65,1.39,1,2.06.05.08.08.09.15,0s.16-.1.23-.16a23.19,23.19,0,0,0,4.6-4.19,15.53,15.53,0,0,0,2.55-4.2,10,10,0,0,0,.72-3.5.17.17,0,0,0-.11-.18,26.08,26.08,0,0,0-2.54-1.26,48.57,48.57,0,0,0-8.31-2.7l-1.44-.31s-.09,0-.09-.07a8.37,8.37,0,0,1,.11-1.41c0-.06,0-.08.11-.07l1.15.16q1.86.3,3.69.72A51,51,0,0,1,32,21.35l1,.36a8.67,8.67,0,0,0-3-3.5.34.34,0,0,1,.19,0,4.05,4.05,0,0,1,1.12.56,8.08,8.08,0,0,1,1.82,1.87c.16.23.31.47.47.72l0-.07c.52-.72,1-1.45,1.56-2.17.07-.1.06-.14,0-.19a21.75,21.75,0,0,0-3.68-1.39,22.47,22.47,0,0,0-2.93-.63c-.74-.11-1.48-.18-2.22-.22a10.73,10.73,0,0,0-5.56,1.17c-.3.15-.3.14-.3.47a25.29,25.29,0,0,0,.29,3.58c.2,1.36.47,2.7.8,4q.6,2.55,1.43,5c0,.09,0,.13-.07.16l-1.16.51c-.1.05-.14,0-.18-.07a26.16,26.16,0,0,1-1.32-3.26,59.48,59.48,0,0,1-1.86-7.41c0-.19-.08-.38-.12-.6a7.7,7.7,0,0,0-1.52,4.41s0-.08-.06-.12a2.89,2.89,0,0,1-.08-.65,5.23,5.23,0,0,1,.08-1.53A9.83,9.83,0,0,1,17.63,20c.08-.16.08-.15-.09-.17l-1.23-.12-1.39-.13c-.09,0-.14,0-.13.12.05.62.14,1.24.24,1.86a25.64,25.64,0,0,0,1.21,4.57,16,16,0,0,0,2.1,4,9.42,9.42,0,0,0,2.94,2.68.18.18,0,0,0,.2,0c.5-.3,1-.61,1.47-.94a38.58,38.58,0,0,0,4.11-3.33,50.73,50.73,0,0,0,4.23-4.32c.05-.07.09-.07.15,0a10.53,10.53,0,0,1,1.1.79c.08.07.08.11,0,.19-.91,1.2-1.86,2.34-2.88,3.44-1.47,1.59-3,3.08-4.64,4.52l-.6.54.32,0a8.71,8.71,0,0,0,2.91-.39C28.08,33.2,28.47,33,28.87,32.88ZM27.52,15.53l0-.07a17.94,17.94,0,0,0-1.76-2.39,6.52,6.52,0,0,0-1.49-1.33,1.7,1.7,0,0,0-1.05-.28,1.79,1.79,0,0,0-1.12.55,4,4,0,0,0-.93,1.53,10.62,10.62,0,0,0-.61,3.39c0,.15.06.08.11.05a12,12,0,0,1,4.92-1.42A11.75,11.75,0,0,1,27.52,15.53ZM15.64,28.09a.23.23,0,0,0-.08.11,16.69,16.69,0,0,0-1.14,2.64,6.38,6.38,0,0,0-.35,2,1.59,1.59,0,0,0,1.36,1.67,5.71,5.71,0,0,0,2.06,0,8,8,0,0,0,2.38-.84c.2-.11.4-.21.59-.33A12.52,12.52,0,0,1,15.64,28.09ZM32.45,32H33a13.69,13.69,0,0,0,2.71-.36,5,5,0,0,0,1.8-.74,1.56,1.56,0,0,0,.69-1.74,3.88,3.88,0,0,0-.78-1.54,11.48,11.48,0,0,0-2.71-2.4c-.09-.06-.09,0-.09.06a8.75,8.75,0,0,1-.11,1.53,12.37,12.37,0,0,1-1.83,4.8ZM16.6,18.5l1.13,0c.27,0,.26,0,.24-.26,0-.59-.09-1.18-.15-1.77a1.69,1.69,0,0,0-.05-.55,2.29,2.29,0,0,0-.68-.95.87.87,0,0,0-1.22,0,2.44,2.44,0,0,0-.69,1,6.39,6.39,0,0,0-.36,2.29c0,.08,0,.08.1.08Zm22.11,3.79a1.5,1.5,0,0,0-.31-.83,7,7,0,0,0-2.07-1.84s-.07,0-.1,0a3.3,3.3,0,0,1-.18.32c-.46.75-.94,1.5-1.42,2.24,0,.06-.06.1,0,.14.75.31,1.46.68,2.18,1a.28.28,0,0,0,.2,0l.67-.05A1,1,0,0,0,38.71,22.29ZM23,34.78c-.69.51-1.4,1-2.1,1.46a.29.29,0,0,0-.11.11,3,3,0,0,0-.36.84,1,1,0,0,0,.62,1.19,2.32,2.32,0,0,0,1.38,0,8,8,0,0,0,2-.79c.08,0,.06-.08,0-.14L23.72,36Z"/></g></svg>