<svg xmlns="http://www.w3.org/2000/svg" viewBox="0 0 50 50"><defs><style>.cls-1{fill:#fff;}</style></defs><g id="Capa_1" data-name="Capa 1"><path class="cls-1" d="M44,29a.82.82,0,0,0-.06.27A2.65,2.65,0,0,1,42.8,30.8a7.45,7.45,0,0,1-2.31,1,18.28,18.28,0,0,1-3,.52c-1.43.14-2.86.09-4.29.1h-.61a.21.21,0,0,0-.18.09,28.57,28.57,0,0,1-2.67,3.14,14.53,14.53,0,0,1-2.22,1.85c-.06,0-.08.06,0,.13a37.53,37.53,0,0,0,3.87,6l.36.43.37.41a.88.88,0,0,1-.3-.09,3,3,0,0,1-1-.67,17.74,17.74,0,0,1-1.88-2.17,39.14,39.14,0,0,1-2.25-3.3c-.05-.09-.09-.06-.15,0a12,12,0,0,1-3.18,1.45,5.2,5.2,0,0,1-1.88.19,1.67,1.67,0,0,1-1.6-1.4,2.46,2.46,0,0,1,.1-1A4.84,4.84,0,0,1,20.53,36a.14.14,0,0,0-.11,0,14.26,14.26,0,0,1-3.68,1.4,6.36,6.36,0,0,1-2.38.09,2.61,2.61,0,0,1-2.22-2.23,5.84,5.84,0,0,1,.09-2,17,17,0,0,1,1.41-4,29.35,29.35,0,0,1,2.17-3.82.2.2,0,0,0,0-.21,28.87,28.87,0,0,1-1.6-4.81,11.61,11.61,0,0,1-.29-1.86c0-.18,0-.17-.2-.19a26.07,26.07,0,0,0-2.93,0c-.9,0-1.79.1-2.68.21-.73.09-1.46.2-2.18.36l-.23.06s-.07,0-.1,0a.08.08,0,0,1,0-.1l.22-.19a2.72,2.72,0,0,1,1.25-.52c1-.23,2-.41,3-.54a30.09,30.09,0,0,1,3.55-.24c.08,0,.11,0,.11-.11A18.91,18.91,0,0,1,14,15a7.81,7.81,0,0,1,.65-2.43,2.82,2.82,0,0,1,.7-.93,1.64,1.64,0,0,1,2.15,0,5.23,5.23,0,0,1,1.27,1.54.05.05,0,0,0,0,0c.05,0,0,0,0-.07A15.67,15.67,0,0,1,19.41,9a5.72,5.72,0,0,1,1-2,2.62,2.62,0,0,1,3.13-.79A6.37,6.37,0,0,1,25.5,7.56,18,18,0,0,1,28.25,11a31.55,31.55,0,0,1,2,3.44.17.17,0,0,0,.15.12c.73.07,1.45.19,2.17.32a25.57,25.57,0,0,1,3.34.86,12.09,12.09,0,0,1,1.34.54c.11.05.16,0,.22-.07.32-.49.61-1,.89-1.51a42,42,0,0,0,2-4.09,8.08,8.08,0,0,0,.55-1.66.25.25,0,0,1,0-.07,1.63,1.63,0,0,1,.11.75,6.18,6.18,0,0,1-.43,1.69c-.34,1-.7,2-1.13,2.89-.37.78-.76,1.55-1.14,2.33a.59.59,0,0,1,0,.08c0,.07,0,.11.05.16a13.69,13.69,0,0,1,1.72,1.12,8.39,8.39,0,0,1,1.66,1.6,3.35,3.35,0,0,1,.68,1.39,1.46,1.46,0,0,1-1,1.82,5.26,5.26,0,0,1-2,.33h-.07c0,.06.06.07.1.09a14.79,14.79,0,0,1,3.09,2.54,6.14,6.14,0,0,1,1.27,2.05,3.16,3.16,0,0,1,.16.74s0,0,0,0ZM29.87,31.74l0,0a3.61,3.61,0,0,1-.62.49,6.49,6.49,0,0,1-3,.91,6.61,6.61,0,0,1-.89,0c-.09,0-.09,0-.06.1s.12.26.17.39c.31.71.65,1.39,1,2.07.05.08.08.08.15,0l.23-.15a22.94,22.94,0,0,0,4.6-4.2,15.63,15.63,0,0,0,2.55-4.19,10,10,0,0,0,.72-3.51.17.17,0,0,0-.11-.18c-.82-.46-1.67-.88-2.54-1.26a48.54,48.54,0,0,0-8.31-2.69c-.48-.12-1-.22-1.44-.31,0,0-.09,0-.09-.08a8.18,8.18,0,0,1,.11-1.4c0-.07,0-.09.11-.08l1.15.16c1.24.2,2.47.45,3.69.72A51,51,0,0,1,33,20.21l1,.36a8.67,8.67,0,0,0-3-3.5.34.34,0,0,1,.19,0,4.09,4.09,0,0,1,1.12.57,7.7,7.7,0,0,1,1.82,1.87c.16.23.31.47.47.71l0-.07c.52-.72,1-1.45,1.56-2.17.07-.1.06-.13,0-.19a23.6,23.6,0,0,0-3.68-1.39,24.24,24.24,0,0,0-2.93-.63,20.83,20.83,0,0,0-2.22-.21,10.93,10.93,0,0,0-2.55.15,11.13,11.13,0,0,0-3,1c-.3.15-.3.15-.3.48a25,25,0,0,0,.29,3.57c.2,1.36.47,2.7.8,4,.4,1.7.88,3.37,1.43,5,0,.09,0,.12-.07.15l-1.16.51c-.1.05-.14,0-.18-.07a26.16,26.16,0,0,1-1.32-3.26,58.61,58.61,0,0,1-1.86-7.41c0-.19-.08-.38-.12-.6a7.7,7.7,0,0,0-1.52,4.41s0-.08-.06-.12a2.82,2.82,0,0,1-.08-.65,5.25,5.25,0,0,1,.08-1.53,10,10,0,0,1,.92-2.42c.08-.15.08-.15-.09-.17l-1.23-.11-1.39-.14c-.09,0-.14,0-.13.12.05.63.14,1.25.24,1.86A26,26,0,0,0,17.24,25a16.16,16.16,0,0,0,2.1,4,9.51,9.51,0,0,0,2.94,2.67.16.16,0,0,0,.2,0c.5-.29,1-.61,1.47-.94a38.49,38.49,0,0,0,4.11-3.32,52.37,52.37,0,0,0,4.23-4.33.09.09,0,0,1,.15,0,10.44,10.44,0,0,1,1.1.78c.08.07.08.11,0,.19-.91,1.2-1.86,2.35-2.88,3.45-1.47,1.59-3,3.07-4.64,4.52l-.6.53.32,0a8.47,8.47,0,0,0,2.91-.4C29.08,32.06,29.47,31.9,29.87,31.74ZM28.52,14.39l0-.07a18.61,18.61,0,0,0-1.76-2.39,6.48,6.48,0,0,0-1.49-1.32,1.65,1.65,0,0,0-1.05-.29,1.79,1.79,0,0,0-1.12.55,4.06,4.06,0,0,0-.93,1.54,10.57,10.57,0,0,0-.61,3.39c0,.14.06.07.11,0a12,12,0,0,1,4.92-1.42A11.75,11.75,0,0,1,28.52,14.39ZM16.64,27a.38.38,0,0,0-.08.11,17.1,17.1,0,0,0-1.14,2.64,6.43,6.43,0,0,0-.35,2,1.58,1.58,0,0,0,1.36,1.67,5.71,5.71,0,0,0,2.06,0,8,8,0,0,0,2.38-.84,4.91,4.91,0,0,0,.59-.33A12.4,12.4,0,0,1,16.64,27Zm16.81,3.94H34a13.69,13.69,0,0,0,2.71-.36,5,5,0,0,0,1.8-.74,1.56,1.56,0,0,0,.69-1.74,3.88,3.88,0,0,0-.78-1.54,11.71,11.71,0,0,0-2.71-2.4c-.09-.05-.09,0-.09.06a8.69,8.69,0,0,1-.11,1.53,12.48,12.48,0,0,1-1.83,4.81ZM17.6,17.36l1.13,0c.27,0,.26,0,.24-.27,0-.59-.09-1.18-.15-1.77a1.63,1.63,0,0,0-.05-.54,2.17,2.17,0,0,0-.68-1,.87.87,0,0,0-1.22,0,2.47,2.47,0,0,0-.69,1,6.3,6.3,0,0,0-.36,2.28c0,.09,0,.08.1.08Zm22.11,3.79a1.44,1.44,0,0,0-.31-.82,6.91,6.91,0,0,0-2.07-1.85s-.07,0-.1,0-.12.21-.18.31c-.46.76-.94,1.5-1.42,2.25,0,.06-.06.1,0,.13.75.31,1.46.68,2.18,1.05a.34.34,0,0,0,.2,0l.67,0A1,1,0,0,0,39.71,21.15ZM24,33.64c-.69.51-1.4,1-2.1,1.46,0,0-.09.07-.11.12a2.85,2.85,0,0,0-.36.84,1,1,0,0,0,.62,1.19,2.4,2.4,0,0,0,1.38,0,7.63,7.63,0,0,0,2-.78c.08,0,.06-.09,0-.15l-.78-1.45Z"/></g></svg>