<svg xmlns="http://www.w3.org/2000/svg" viewBox="0 0 50 50"><defs><style>.cls-1{fill:#fff;}</style></defs><g id="Capa_1" data-name="Capa 1"><path class="cls-1" d="M9,44l-.48,0-4-.38A5.19,5.19,0,0,1,0,37.85v-.06l3.07-23a5.26,5.26,0,0,1,2.15-3.76l4.88-4.2.08,0A4.84,4.84,0,0,1,12.31,6l.17,0,10.78.73a26.27,26.27,0,0,0,3.32,0L37.69,6l.17,0a4.89,4.89,0,0,1,2.1.82l.07,0,4.89,4.2a5.3,5.3,0,0,1,2.15,3.77l2.91,23a5.19,5.19,0,0,1-4.56,5.73l-4,.38a5,5,0,0,1-4.71-2.39l-6-8.15,0-.06a1.68,1.68,0,0,0-1.43-.86H20.68a1.68,1.68,0,0,0-1.43.86l-.09.13-5.9,8.08A5,5,0,0,1,9,44ZM3.34,38.19A1.85,1.85,0,0,0,4.9,40.26l4,.38a1.65,1.65,0,0,0,1.58-.85l.09-.13,5.9-8.08a5,5,0,0,1,4.25-2.41h8.64a5,5,0,0,1,4.25,2.41l6,8.14,0,.07a1.64,1.64,0,0,0,1.58.85l4-.38a1.85,1.85,0,0,0,1.56-2.07l-2.91-23a1.93,1.93,0,0,0-.8-1.42l-.08,0L38,9.53a1.46,1.46,0,0,0-.48-.21L26.79,10A29.33,29.33,0,0,1,23,10l-10.4-.71a1.46,1.46,0,0,0-.48.21L7.29,13.71l-.07,0a2,2,0,0,0-.81,1.42v.06Z"/><path class="cls-1" d="M19.33,25.38,13,23.18l-.08,0a2,2,0,0,1-.82-.84L9.92,18a1.93,1.93,0,0,1,.1-1.89,2,2,0,0,1,1.77-.94h.13l6,1.41-.58,2.44L12.67,18l1.5,3,6,2.07Z"/><path class="cls-1" d="M30.81,24.93,30,22.57l6-2.07,1.5-3-4.63,1.1-.58-2.43,6-1.42h.13a2,2,0,0,1,1.77.95,1.88,1.88,0,0,1,.1,1.89l-2.13,4.26a1.83,1.83,0,0,1-.82.83l-.08,0Z"/><path class="cls-1" d="M24.88,28a8.32,8.32,0,1,1,8.31-8.32A8.33,8.33,0,0,1,24.88,28Zm0-14.14a5.82,5.82,0,1,0,5.81,5.82A5.83,5.83,0,0,0,24.88,13.86Z"/></g></svg>