<svg xmlns="http://www.w3.org/2000/svg" viewBox="0 0 50 50"><defs><style>.cls-1{fill:#fff;}</style></defs><g id="Capa_1" data-name="Capa 1"><path class="cls-1" d="M9.27,37.17V10a.88.88,0,0,0,.07-.32,2,2,0,0,1,1.72-1.84,2.11,2.11,0,0,0,.5-.1H39.14a.89.89,0,0,0,.36.07,2,2,0,0,1,1.82,1.62,4.37,4.37,0,0,1,.11,1v25.9c0,.32,0,.63,0,.95a1.86,1.86,0,0,1-.86,1.56,3.93,3.93,0,0,1-.68.34L26.31,44.92a2.35,2.35,0,0,1-1.91,0L13.91,40.51C12.74,40,11.55,39.56,10.4,39A1.79,1.79,0,0,1,9.33,37.5.63.63,0,0,0,9.27,37.17ZM30.32,19.9v4.38c0,.23,0,.47,0,.71a2.11,2.11,0,0,0,1.88,2.12,8.45,8.45,0,0,0,2.51,0,2,2,0,0,0,1.79-1.44,2.93,2.93,0,0,0,.16-.93c0-1.14,0-2.28,0-3.43,0-.11,0-.13-.15-.13h-1.8c-.15,0-.2,0-.2.18,0,1,0,1.94,0,2.9,0,.1,0,.2,0,.29a.67.67,0,0,1-.72.69,5,5,0,0,1-.55,0,.71.71,0,0,1-.78-.8v-9a1.67,1.67,0,0,1,0-.31.64.64,0,0,1,.66-.62,3,3,0,0,1,.6,0,.69.69,0,0,1,.73.77v.23c0,.83,0,1.66,0,2.48,0,.12,0,.16.15.16H36.5c.14,0,.16-.05.16-.17,0-.86,0-1.73,0-2.59,0-.25,0-.5,0-.74a2,2,0,0,0-1.79-2,7.65,7.65,0,0,0-2.74,0,2,2,0,0,0-1.65,1.55,4.33,4.33,0,0,0-.12,1.14ZM20,19.89v7c0,.13,0,.19.17.18h1.82c.16,0,.19,0,.19-.19V22c0-.15,0-.19.17-.19a12,12,0,0,0,1.7,0,2.08,2.08,0,0,0,1.84-1.44,2.93,2.93,0,0,0,.16-.93c0-1.38,0-2.76,0-4.14a5.27,5.27,0,0,0,0-.56,2.1,2.1,0,0,0-1.61-1.9,4.21,4.21,0,0,0-1.06-.12H20.14c-.16,0-.2,0-.19.2Zm-5.94,0v7c0,.15,0,.2.18.19h4.54c.13,0,.17,0,.17-.15q0-.84,0-1.68c0-.13,0-.16-.16-.16H16.35c-.13,0-.16,0-.16-.16v-4c0-.14,0-.17.17-.17H18.6c.12,0,.16,0,.15-.15,0-.55,0-1.09,0-1.64,0-.15,0-.21-.2-.2H16.39c-.15,0-.2,0-.2-.2,0-1.23,0-2.45,0-3.68,0-.14,0-.19.18-.18H18.7c.13,0,.16,0,.16-.16,0-.55,0-1.1,0-1.66,0-.13,0-.17-.17-.17h-4.5c-.16,0-.18,0-.18.19Zm15.17,0c0-2.32,0-4.64,0-7,0-.14,0-.19-.18-.19H27.14c-.11,0-.15,0-.15.15v14c0,.14,0,.16.16.16H29c.15,0,.2,0,.2-.19C29.17,24.54,29.18,22.21,29.18,19.88Zm-2,12.49,0,0v2.34c0,.11,0,.15.14.15.29,0,.59,0,.89,0,.09,0,.11,0,.11-.11V30.66c0-.09,0-.12-.12-.12-.32,0-.64,0-.95,0a.23.23,0,0,0-.22.13c-.19.32-.4.65-.6,1l-.38.61-.94-1.54a.28.28,0,0,0-.3-.17q-.43,0-.87,0c-.11,0-.15,0-.15.14,0,1.36,0,2.71,0,4.07,0,.1,0,.13.13.13.28,0,.55,0,.82,0s.19,0,.19-.18c0-.72,0-1.44,0-2.17,0,0,0-.1,0-.15l1.09,1.69ZM19.28,40v0l.13,0L25,42a.61.61,0,0,0,.46,0l4.63-1.53L31.51,40v0Zm-2.11-7.66h-.61c-.38,0-.38,0-.38.37,0,.16-.05.36,0,.46s.31,0,.47,0c.36,0,.36,0,.37.38a.24.24,0,0,1-.17.26,1.28,1.28,0,0,1-1.33-.17,1.22,1.22,0,0,1-.39-1.27,1.1,1.1,0,0,1,1-.92,1.35,1.35,0,0,1,1,.31c.12.1.17.07.25,0s.3-.38.47-.56.07-.16,0-.23a2.56,2.56,0,0,0-2.34-.4A2.09,2.09,0,0,0,14,32.3a2.14,2.14,0,0,0,.87,2.23,2.75,2.75,0,0,0,3.22-.19.18.18,0,0,0,.06-.16V32.49c0-.13,0-.14-.14-.13Zm12,.36c0,.67,0,1.35,0,2,0,.09,0,.14.13.14,1.07,0,2.13,0,3.2,0,.12,0,.13-.05.13-.14s0-.45,0-.68,0-.17-.17-.17h-2c-.11,0-.17,0-.16-.15a2.16,2.16,0,0,0,0-.44c0-.13,0-.15.16-.15h1.75c.12,0,.16,0,.16-.15s0-.4,0-.6,0-.18-.17-.17H30.51c-.12,0-.18,0-.17-.15a1.7,1.7,0,0,0,0-.39c0-.14,0-.18.18-.18h2c.12,0,.16,0,.15-.15s0-.45,0-.68,0-.16-.16-.16q-1.56,0-3.12,0c-.12,0-.15,0-.15.15C29.22,31.37,29.21,32,29.21,32.72ZM18.58,34.88c.38,0,.74,0,1.1,0,.07,0,.1,0,.13-.1s.16-.4.24-.61a.14.14,0,0,1,.15-.11h1.48a.14.14,0,0,1,.16.11c.07.2.16.38.22.58a.18.18,0,0,0,.2.13q.43,0,.87,0c.16,0,.21,0,.14-.18-.58-1.35-1.15-2.71-1.72-4.07a.14.14,0,0,0-.17-.11h-.82c-.12,0-.17,0-.22.14-.35.85-.72,1.71-1.07,2.56C19,33.76,18.81,34.3,18.58,34.88ZM35,35a2.36,2.36,0,0,0,1.12-.22,1.24,1.24,0,0,0,.69-1.23,1.1,1.1,0,0,0-.73-1,3.35,3.35,0,0,0-.53-.19,5.36,5.36,0,0,1-.89-.26.28.28,0,0,1-.19-.3.3.3,0,0,1,.24-.25.69.69,0,0,1,.25,0,2.05,2.05,0,0,1,1,.35c.08.06.13.06.19,0s.29-.41.43-.61.06-.1,0-.17A2.71,2.71,0,0,0,34,30.69a1.25,1.25,0,0,0-.68,1.25A1.13,1.13,0,0,0,34,33a5.36,5.36,0,0,0,.78.23,2.88,2.88,0,0,1,.59.18.3.3,0,0,1,.19.32.29.29,0,0,1-.25.25A1,1,0,0,1,35,34a2.1,2.1,0,0,1-1.17-.43c-.09-.07-.14-.07-.2,0s-.31.38-.47.56-.07.14,0,.21A3,3,0,0,0,35,35Z"/><path d="M30.32,19.9V15.4a4.33,4.33,0,0,1,.12-1.14,2,2,0,0,1,1.65-1.55,7.65,7.65,0,0,1,2.74,0,2,2,0,0,1,1.79,2c0,.24,0,.49,0,.74,0,.86,0,1.73,0,2.59,0,.12,0,.17-.16.17H34.66c-.12,0-.15,0-.15-.16,0-.82,0-1.65,0-2.48v-.23a.69.69,0,0,0-.73-.77,3,3,0,0,0-.6,0,.64.64,0,0,0-.66.62,1.67,1.67,0,0,0,0,.31v9a.71.71,0,0,0,.78.8,5,5,0,0,0,.55,0,.67.67,0,0,0,.72-.69c0-.09,0-.19,0-.29,0-1,0-1.93,0-2.9,0-.15.05-.19.2-.18h1.8c.11,0,.15,0,.15.13,0,1.15,0,2.29,0,3.43a2.93,2.93,0,0,1-.16.93,2,2,0,0,1-1.79,1.44,8.45,8.45,0,0,1-2.51,0A2.11,2.11,0,0,1,30.35,25c0-.24,0-.48,0-.71Z"/><path d="M20,19.89v-7c0-.16,0-.2.19-.2H23.3a4.21,4.21,0,0,1,1.06.12A2.1,2.1,0,0,1,26,14.75a5.27,5.27,0,0,1,0,.56c0,1.38,0,2.76,0,4.14a2.93,2.93,0,0,1-.16.93A2.08,2.08,0,0,1,24,21.82a12,12,0,0,1-1.7,0c-.14,0-.18,0-.17.19v4.83c0,.14,0,.2-.19.19H20.12c-.15,0-.17,0-.17-.18Zm2.18-2.61v2.5c0,.08,0,.16.1.16.33,0,.66,0,1,0a.63.63,0,0,0,.59-.59,2.17,2.17,0,0,0,0-.36c0-.7,0-1.4,0-2.1,0-.48,0-1,0-1.45a.69.69,0,0,0-.78-.76H22.3c-.15,0-.18.05-.17.18Z"/><path d="M14,19.89v-7c0-.14,0-.19.18-.19h4.5c.14,0,.17,0,.17.17,0,.56,0,1.11,0,1.66,0,.13,0,.16-.16.16H16.37c-.15,0-.18,0-.18.18,0,1.23,0,2.45,0,3.68,0,.17,0,.2.2.2h2.17c.17,0,.2.05.2.2,0,.55,0,1.09,0,1.64,0,.12,0,.15-.15.15H16.36c-.13,0-.17,0-.17.17v4c0,.13,0,.16.16.16h2.39c.13,0,.16,0,.16.16q0,.84,0,1.68c0,.13,0,.15-.17.15H14.19c-.15,0-.18,0-.18-.19Z"/><path d="M29.18,19.88c0,2.33,0,4.66,0,7,0,.16-.05.2-.2.19H27.15c-.12,0-.16,0-.16-.16v-14c0-.13,0-.15.15-.15H29c.16,0,.18,0,.18.19C29.17,15.24,29.18,17.56,29.18,19.88Z"/><path d="M27.16,32.37l-1.1,1.7L25,32.38s0,.11,0,.15c0,.73,0,1.45,0,2.17,0,.15-.05.18-.19.18s-.54,0-.82,0c-.1,0-.13,0-.13-.13,0-1.36,0-2.71,0-4.07,0-.12,0-.14.15-.14q.43,0,.87,0a.28.28,0,0,1,.3.17l.94,1.54.38-.61c.2-.32.41-.65.6-1a.23.23,0,0,1,.22-.13c.31,0,.63,0,.95,0,.09,0,.12,0,.12.12v4.11c0,.08,0,.11-.11.11-.3,0-.6,0-.89,0-.12,0-.14,0-.14-.15V32.39Z"/><path d="M19.28,40H31.5v0l-1.39.46L25.49,42A.61.61,0,0,1,25,42l-5.62-1.94-.13,0Z"/><path d="M17.17,32.36H18c.1,0,.15,0,.14.13v1.69a.18.18,0,0,1-.06.16,2.75,2.75,0,0,1-3.22.19A2.14,2.14,0,0,1,14,32.3a2.09,2.09,0,0,1,1.54-1.72,2.56,2.56,0,0,1,2.34.4c.1.07.13.12,0,.23s-.32.37-.47.56-.13.14-.25,0a1.35,1.35,0,0,0-1-.31,1.1,1.1,0,0,0-1,.92,1.22,1.22,0,0,0,.39,1.27,1.28,1.28,0,0,0,1.33.17.24.24,0,0,0,.17-.26c0-.37,0-.37-.37-.38-.16,0-.37.08-.47,0s0-.3,0-.46c0-.37,0-.37.38-.37Z"/><path d="M29.21,32.72c0-.68,0-1.35,0-2,0-.11,0-.15.15-.15q1.56,0,3.12,0c.13,0,.17,0,.16.16s0,.45,0,.68,0,.15-.15.15h-2c-.14,0-.19,0-.18.18a1.7,1.7,0,0,1,0,.39c0,.13.05.15.17.15h1.73c.14,0,.17,0,.17.17s0,.4,0,.6,0,.15-.16.15H30.5c-.12,0-.17,0-.16.15a2.16,2.16,0,0,1,0,.44c0,.13.05.15.16.15h2c.14,0,.18,0,.17.17s0,.45,0,.68,0,.14-.13.14c-1.07,0-2.13,0-3.2,0-.12,0-.13-.05-.13-.14C29.22,34.07,29.21,33.39,29.21,32.72Z"/><path d="M18.58,34.88c.23-.58.46-1.12.69-1.66.35-.85.72-1.71,1.07-2.56.05-.11.1-.15.22-.14h.82a.14.14,0,0,1,.17.11c.57,1.36,1.14,2.72,1.72,4.07.07.17,0,.18-.14.18s-.58,0-.87,0a.18.18,0,0,1-.2-.13c-.06-.2-.15-.38-.22-.58a.14.14,0,0,0-.16-.11H20.2a.14.14,0,0,0-.15.11c-.08.21-.17.41-.24.61s-.06.1-.13.1C19.32,34.87,19,34.88,18.58,34.88Zm2.37-3-.48,1.18c0,.09,0,.08.09.08h.74c.13,0,.13,0,.09-.14C21.24,32.65,21.1,32.28,21,31.89Z"/><path d="M35,35a3,3,0,0,1-1.77-.61c-.09-.07-.11-.12,0-.21s.32-.37.47-.56.11-.09.2,0A2.1,2.1,0,0,0,35,34a1,1,0,0,0,.35,0,.29.29,0,0,0,.25-.25.3.3,0,0,0-.19-.32,2.88,2.88,0,0,0-.59-.18A5.36,5.36,0,0,1,34,33a1.13,1.13,0,0,1-.77-1A1.25,1.25,0,0,1,34,30.69a2.71,2.71,0,0,1,2.61.29c.07.07,0,.11,0,.17s-.29.4-.43.61-.11.09-.19,0a2.05,2.05,0,0,0-1-.35.69.69,0,0,0-.25,0,.3.3,0,0,0-.24.25.28.28,0,0,0,.19.3,5.36,5.36,0,0,0,.89.26,3.35,3.35,0,0,1,.53.19,1.1,1.1,0,0,1,.73,1,1.24,1.24,0,0,1-.69,1.23A2.36,2.36,0,0,1,35,35Z"/><path class="cls-1" d="M22.13,17.28V14.84c0-.13,0-.19.17-.18h.75a.69.69,0,0,1,.78.76c0,.48,0,1,0,1.45,0,.7,0,1.4,0,2.1a2.17,2.17,0,0,1,0,.36.63.63,0,0,1-.59.59c-.33,0-.66,0-1,0-.13,0-.1-.08-.1-.16Z"/><path class="cls-1" d="M21,31.89c.15.39.29.76.44,1.12,0,.1,0,.14-.09.14h-.74s-.12,0-.09-.08Z"/></g></svg>