<svg xmlns="http://www.w3.org/2000/svg" viewBox="0 0 50 50"><defs><style>.cls-1{fill:#fff;}</style></defs><g id="Capa_1" data-name="Capa 1"><path d="M9,36.13V9A.76.76,0,0,0,9,8.67a2,2,0,0,1,1.72-1.84,3,3,0,0,0,.5-.1H38.82a1,1,0,0,0,.37.07A2,2,0,0,1,41,8.41a4,4,0,0,1,.12,1v25.9c0,.32,0,.63,0,.95a1.88,1.88,0,0,1-.86,1.56,4.79,4.79,0,0,1-.68.34L26,43.88a2.35,2.35,0,0,1-1.91,0L13.6,39.47c-1.17-.49-2.36-.95-3.51-1.49A1.79,1.79,0,0,1,9,36.46.55.55,0,0,0,9,36.13ZM30,18.86v4.38c0,.23,0,.47,0,.71a2.11,2.11,0,0,0,1.88,2.12,8.38,8.38,0,0,0,2.5,0,2,2,0,0,0,1.8-1.44,3.24,3.24,0,0,0,.16-.93c0-1.14,0-2.29,0-3.43,0-.12,0-.14-.15-.13h-1.8c-.15,0-.2,0-.2.19,0,1,0,1.93,0,2.9a2.81,2.81,0,0,0,0,.29.68.68,0,0,1-.72.69H33a.71.71,0,0,1-.78-.8v-9a1.62,1.62,0,0,1,0-.31.64.64,0,0,1,.66-.62,2.41,2.41,0,0,1,.6,0,.68.68,0,0,1,.73.76v.24c0,.83,0,1.66,0,2.48,0,.12,0,.16.15.16.62,0,1.23,0,1.84,0,.14,0,.16-.05.16-.17,0-.86,0-1.73,0-2.59q0-.37,0-.75a2,2,0,0,0-1.79-2,8.13,8.13,0,0,0-2.74,0,2,2,0,0,0-1.65,1.56A4.3,4.3,0,0,0,30,14.35Zm-10.37,0v7c0,.13,0,.18.17.18h1.82c.16,0,.19-.05.19-.19,0-1.61,0-3.23,0-4.84,0-.14,0-.18.18-.18a12.07,12.07,0,0,0,1.7,0,2.07,2.07,0,0,0,1.84-1.43,2.93,2.93,0,0,0,.16-.93c0-1.38,0-2.76,0-4.14a5.27,5.27,0,0,0,0-.56,2.09,2.09,0,0,0-1.61-1.9A4.21,4.21,0,0,0,23,11.69H19.83c-.16,0-.2,0-.2.2Q19.65,15.37,19.64,18.85Zm-5.94,0v7c0,.15,0,.19.18.19h4.54c.13,0,.17,0,.17-.16,0-.56,0-1.11,0-1.67,0-.13,0-.17-.16-.17H16c-.13,0-.16,0-.16-.16v-4c0-.14,0-.17.17-.17h2.24c.12,0,.16,0,.15-.15V17.93c0-.16,0-.21-.19-.2H16.08c-.15,0-.21,0-.2-.19,0-1.23,0-2.46,0-3.68,0-.14,0-.19.18-.19h2.33c.13,0,.16,0,.16-.16,0-.55,0-1.11,0-1.66,0-.13,0-.17-.17-.17h-4.5c-.16,0-.19.05-.18.19Zm15.16,0q0-3.48,0-7c0-.13,0-.18-.18-.18H26.83c-.11,0-.15,0-.15.15v14c0,.13,0,.16.16.16h1.83c.15,0,.2,0,.2-.19Q28.85,22.34,28.86,18.84Zm-2,12.49,0,0v2.34c0,.11,0,.15.14.15.29,0,.59,0,.89,0,.09,0,.11,0,.11-.12v-4.1c0-.1,0-.12-.12-.12-.32,0-.64,0-.95,0a.24.24,0,0,0-.22.12c-.19.33-.4.66-.6,1l-.38.61c-.32-.54-.63-1-.94-1.54a.28.28,0,0,0-.3-.17q-.43,0-.87,0c-.11,0-.15,0-.15.14,0,1.35,0,2.71,0,4.06,0,.1,0,.14.13.14.28,0,.55,0,.82,0s.19,0,.19-.18c0-.72,0-1.44,0-2.17,0,0,0-.1,0-.15L25.75,33ZM19,39v0l.14,0L24.71,41a.69.69,0,0,0,.47,0l4.63-1.53L31.2,39v0Zm-2.12-7.66h-.6c-.38,0-.38,0-.38.37,0,.15,0,.36,0,.46s.31,0,.47,0c.36,0,.36,0,.36.38a.21.21,0,0,1-.16.25,1.26,1.26,0,0,1-1.33-.16,1.22,1.22,0,0,1-.39-1.27,1.1,1.1,0,0,1,1-.93,1.4,1.4,0,0,1,1,.32c.11.1.17.07.25,0s.3-.39.46-.56.08-.16,0-.23a2.53,2.53,0,0,0-2.34-.4,2.09,2.09,0,0,0-1.54,1.72,2.14,2.14,0,0,0,.87,2.23,2.76,2.76,0,0,0,3.22-.19.18.18,0,0,0,.06-.16V31.45c0-.13,0-.14-.14-.14Zm12,.36c0,.67,0,1.34,0,2,0,.09,0,.14.13.14,1.06,0,2.13,0,3.2,0,.12,0,.13-.05.13-.14s0-.45,0-.68,0-.17-.17-.17h-2c-.12,0-.17,0-.16-.14a3.23,3.23,0,0,0,0-.44c0-.13,0-.16.16-.15h1.75c.12,0,.16,0,.16-.15s0-.4,0-.6,0-.18-.17-.18H30.2c-.13,0-.18,0-.17-.16a2.41,2.41,0,0,0,0-.38c0-.14,0-.18.18-.18h2c.12,0,.16,0,.15-.15s0-.45,0-.68,0-.16-.16-.16H29.05c-.12,0-.15,0-.15.15C28.91,30.33,28.9,31,28.9,31.68ZM18.26,33.83h1.11c.07,0,.1,0,.13-.1s.16-.4.24-.61a.14.14,0,0,1,.15-.11h1.48a.14.14,0,0,1,.16.11c.07.19.16.38.22.58a.18.18,0,0,0,.2.13q.43,0,.87,0c.16,0,.2,0,.13-.18l-1.71-4.07a.16.16,0,0,0-.18-.12c-.27,0-.54,0-.82,0-.11,0-.16,0-.21.15-.35.85-.72,1.7-1.07,2.56Zm16.38.08a2.25,2.25,0,0,0,1.12-.23,1.27,1.27,0,0,0,.69-1.22,1.12,1.12,0,0,0-.73-1,3.31,3.31,0,0,0-.53-.18A5.36,5.36,0,0,1,34.3,31a.28.28,0,0,1-.19-.3.3.3,0,0,1,.24-.25.69.69,0,0,1,.25,0,2,2,0,0,1,1,.35c.09.06.14.06.2,0l.43-.62c0-.06.06-.1,0-.16a2.71,2.71,0,0,0-2.61-.29A1.25,1.25,0,0,0,33,30.9a1.11,1.11,0,0,0,.77,1,4.39,4.39,0,0,0,.78.24,2.88,2.88,0,0,1,.59.18.3.3,0,0,1,.19.32.29.29,0,0,1-.25.25,1,1,0,0,1-.35,0,2.11,2.11,0,0,1-1.17-.44c-.09-.06-.14-.06-.21,0s-.3.38-.46.56-.07.13,0,.2A2.93,2.93,0,0,0,34.64,33.91Z"/><path class="cls-1" d="M30,18.86V14.35a4.3,4.3,0,0,1,.12-1.13,2,2,0,0,1,1.65-1.56,8.13,8.13,0,0,1,2.74,0,2,2,0,0,1,1.79,2q0,.38,0,.75c0,.86,0,1.73,0,2.59,0,.12,0,.17-.16.17-.61,0-1.22,0-1.84,0-.12,0-.15,0-.15-.16,0-.82,0-1.65,0-2.48v-.24a.68.68,0,0,0-.73-.76,2.41,2.41,0,0,0-.6,0,.64.64,0,0,0-.66.62,1.62,1.62,0,0,0,0,.31v9a.71.71,0,0,0,.78.8h.55a.68.68,0,0,0,.72-.69,2.81,2.81,0,0,1,0-.29c0-1,0-1.93,0-2.9,0-.15,0-.19.2-.19h1.8c.11,0,.15,0,.15.13,0,1.14,0,2.29,0,3.43a3.24,3.24,0,0,1-.16.93,2,2,0,0,1-1.8,1.44,8.38,8.38,0,0,1-2.5,0A2.11,2.11,0,0,1,30,24c0-.24,0-.48,0-.71Z"/><path class="cls-1" d="M19.64,18.85q0-3.48,0-7c0-.16,0-.2.2-.2H23a4.21,4.21,0,0,1,1.06.12,2.09,2.09,0,0,1,1.61,1.9,5.27,5.27,0,0,1,0,.56c0,1.38,0,2.76,0,4.14a2.93,2.93,0,0,1-.16.93,2.07,2.07,0,0,1-1.84,1.43,12.07,12.07,0,0,1-1.7,0c-.14,0-.18,0-.18.18,0,1.61,0,3.23,0,4.84,0,.14,0,.19-.19.19H19.81c-.15,0-.17-.05-.17-.18Zm2.18-2.61v2.5c0,.07,0,.16.1.16.33,0,.66,0,1,0a.63.63,0,0,0,.59-.59,2.17,2.17,0,0,0,0-.36v-2.1c0-.48,0-1,0-1.46a.69.69,0,0,0-.78-.75c-.25,0-.5,0-.75,0s-.18.05-.18.18C21.82,14.61,21.82,15.43,21.82,16.24Z"/><path class="cls-1" d="M13.7,18.85v-7c0-.14,0-.19.18-.19h4.5c.14,0,.17,0,.17.17,0,.55,0,1.11,0,1.66,0,.13,0,.16-.16.16H16.06c-.15,0-.18.05-.18.19,0,1.22,0,2.45,0,3.68,0,.17,0,.19.2.19h2.17c.17,0,.2,0,.19.2v1.64c0,.12,0,.15-.15.15H16.05c-.13,0-.17,0-.17.17v4c0,.13,0,.16.16.16h2.39c.13,0,.16,0,.16.17,0,.56,0,1.11,0,1.67,0,.14,0,.16-.17.16H13.88c-.15,0-.18,0-.18-.19Z"/><path class="cls-1" d="M28.86,18.84q0,3.5,0,7c0,.16-.05.2-.2.19H26.84c-.12,0-.16,0-.16-.16v-14c0-.13,0-.15.15-.15h1.86c.16,0,.18.05.18.18Q28.85,15.36,28.86,18.84Z"/><path class="cls-1" d="M26.85,31.33,25.75,33l-1.09-1.68c-.05.05,0,.1,0,.15,0,.73,0,1.45,0,2.17,0,.15-.05.18-.19.18s-.54,0-.82,0c-.1,0-.13,0-.13-.14,0-1.35,0-2.71,0-4.06,0-.12,0-.14.15-.14q.44,0,.87,0a.28.28,0,0,1,.3.17c.31.51.62,1,.94,1.54l.38-.61c.2-.32.41-.65.6-1A.24.24,0,0,1,27,29.5c.31,0,.63,0,.95,0,.09,0,.12,0,.12.12v4.1c0,.09,0,.12-.11.12-.3,0-.6,0-.89,0-.12,0-.14,0-.14-.15V31.35Z"/><path class="cls-1" d="M19,39H31.19v0l-1.39.46L25.18,41a.69.69,0,0,1-.47,0L19.1,39.05,19,39Z"/><path class="cls-1" d="M16.85,31.32h.83c.1,0,.15,0,.14.14v1.69a.18.18,0,0,1-.06.16,2.76,2.76,0,0,1-3.22.19,2.14,2.14,0,0,1-.87-2.23,2.09,2.09,0,0,1,1.54-1.72,2.53,2.53,0,0,1,2.34.4c.1.07.13.12,0,.23s-.31.37-.46.56-.14.14-.25,0a1.4,1.4,0,0,0-1-.32,1.1,1.1,0,0,0-1,.93,1.22,1.22,0,0,0,.39,1.27,1.26,1.26,0,0,0,1.33.16.21.21,0,0,0,.16-.25c0-.38,0-.37-.36-.38-.16,0-.38.07-.47,0s0-.31,0-.46c0-.37,0-.37.38-.37Z"/><path class="cls-1" d="M28.9,31.68c0-.68,0-1.35,0-2,0-.12,0-.15.15-.15h3.12c.13,0,.17,0,.16.16s0,.45,0,.68,0,.15-.15.15h-2c-.15,0-.19,0-.18.18A2.41,2.41,0,0,1,30,31c0,.14,0,.16.17.16h1.73c.14,0,.17,0,.17.18s0,.4,0,.6,0,.15-.16.15H30.19c-.12,0-.17,0-.16.15a3.23,3.23,0,0,1,0,.44c0,.13,0,.14.16.14h2c.14,0,.18,0,.17.17s0,.45,0,.68,0,.14-.13.14c-1.07,0-2.14,0-3.2,0-.12,0-.13-.05-.13-.14C28.91,33,28.9,32.35,28.9,31.68Z"/><path class="cls-1" d="M18.26,33.83l.7-1.65c.35-.86.72-1.71,1.07-2.56,0-.11.1-.15.21-.15.28,0,.55,0,.82,0a.16.16,0,0,1,.18.12L23,33.66c.07.16,0,.18-.13.18s-.58,0-.87,0a.18.18,0,0,1-.2-.13c-.06-.2-.15-.39-.22-.58a.14.14,0,0,0-.16-.11H19.89a.14.14,0,0,0-.15.11c-.08.21-.17.41-.24.61s-.06.1-.13.1Zm2.38-3c-.17.42-.32.8-.48,1.18,0,.1,0,.09.09.09H21c.13,0,.13,0,.09-.14C20.93,31.61,20.79,31.24,20.64,30.84Z"/><path class="cls-1" d="M34.64,33.91a2.93,2.93,0,0,1-1.77-.62c-.09-.07-.11-.11,0-.2s.31-.37.46-.56.12-.09.21,0a2.11,2.11,0,0,0,1.17.44,1,1,0,0,0,.35,0,.29.29,0,0,0,.25-.25.3.3,0,0,0-.19-.32,2.88,2.88,0,0,0-.59-.18,4.39,4.39,0,0,1-.78-.24,1.11,1.11,0,0,1-.77-1,1.25,1.25,0,0,1,.68-1.25,2.71,2.71,0,0,1,2.61.29c.07.06,0,.1,0,.16l-.43.62c-.06.09-.11.09-.2,0a2,2,0,0,0-1-.35.69.69,0,0,0-.25,0,.3.3,0,0,0-.24.25.28.28,0,0,0,.19.3,5.36,5.36,0,0,0,.89.26,3.31,3.31,0,0,1,.53.18,1.12,1.12,0,0,1,.73,1,1.27,1.27,0,0,1-.69,1.22A2.25,2.25,0,0,1,34.64,33.91Z"/><path d="M21.82,16.24c0-.81,0-1.63,0-2.44,0-.13,0-.19.18-.18s.5,0,.75,0a.69.69,0,0,1,.78.75c0,.49,0,1,0,1.46v2.1a2.17,2.17,0,0,1,0,.36.63.63,0,0,1-.59.59c-.33,0-.66,0-1,0-.13,0-.1-.09-.1-.16Z"/><path d="M20.64,30.84c.15.4.29.77.44,1.13,0,.1,0,.14-.09.14h-.74c-.05,0-.12,0-.09-.09C20.32,31.64,20.47,31.26,20.64,30.84Z"/></g></svg>