<svg xmlns="http://www.w3.org/2000/svg" viewBox="0 0 1035 1070"><defs><style>.cls-1{fill:#e43537;}</style></defs><g id="Capa_1" data-name="Capa 1"><path class="cls-1" d="M26.59,754.6c1.05-127.72,84.37-244,203.75-277.7,180.42-50.89,329.72,73,356.2,218.93,15.8,87.1.71,168-55.73,238.32-44.27,55.12-100.28,92.52-171,104.51-91.86,15.58-172.16-8.12-240.07-72.54C75.57,924.25,44.77,874.8,33.81,814.38,30.24,794.66,28.94,774.53,26.59,754.6Zm433.61-.32C458.41,667,392.58,601.05,308.1,601.16c-82,.11-149,74.56-148.53,153.57C160,824.57,218.41,907.5,309.7,907.29,400.13,907.09,458.9,829.63,460.2,754.28Z"/><path class="cls-1" d="M856.55,69.58l87,84.79-325,328.84L531,398.93Z"/><path class="cls-1" d="M1034.08,625.33c.14,2.47.35,4.48.35,6.49,0,35.24-.16,70.49.18,105.73.06,6.81-2.19,8.53-8.63,8.52q-169.76-.21-339.53,0c-7.47,0-9.6-2.58-9.54-9.78q.44-51.52,0-103.07c0-6.4,1.73-8.79,8.53-8.78q170.65.27,341.31.16C1029.05,624.63,1031.33,625.05,1034.08,625.33Z"/><path class="cls-1" d="M266,0H385.21V353.24H266Z"/></g></svg>