<svg xmlns="http://www.w3.org/2000/svg" viewBox="0 0 1242 1099"><defs><style>.cls-1{fill:#e43537;}</style></defs><g id="Capa_1" data-name="Capa 1"><path class="cls-1" d="M702.56,1087.5a93.39,93.39,0,0,1-43.27-10.66A96.88,96.88,0,0,1,622,1042.13L522.73,906.19l-.94-1.58c-3.2-5.36-8.36-8.57-13.82-8.57H364c-5.46,0-10.62,3.21-13.82,8.57l-.94,1.58L250,1042.13a96.88,96.88,0,0,1-37.31,34.71,93.24,93.24,0,0,1-52.18,10.23l-66-6.33c-52.94-5.08-91.77-53.67-86.56-108.32l.17-1.48L59.23,588.4a99.24,99.24,0,0,1,40.23-70.5L181,447.76l1.76-1.21a94.76,94.76,0,0,1,40-15.65l4.11-.59,181,12.19a407.9,407.9,0,0,0,53.71.05L648,430.32l4.08.58a94.76,94.76,0,0,1,40,15.65l1.76,1.21,81.52,70.14a99.21,99.21,0,0,1,40.25,70.66L864,971.82l.06.6c5.21,54.65-33.62,103.24-86.56,108.32l-66,6.33C708.5,1087.36,705.52,1087.5,702.56,1087.5Zm-616-107c-.77,10.9,6.23,20.73,15.51,21.62l66.05,6.34c5.89.56,11.69-2.7,15.15-8.5l.94-1.59,99.25-136C300.94,834.37,331.64,817,364,817H508c32.39,0,63.09,17.33,80.61,45.36l99.25,136,.94,1.59c3.46,5.8,9.26,9.06,15.15,8.5l66-6.34c9.32-.9,16.33-10.79,15.51-21.72L737,597.33l0-.6a20.71,20.71,0,0,0-8.4-15.12l-1.76-1.22L646,510.86a15.47,15.47,0,0,0-2.39-1.09L466.67,521.38a487.57,487.57,0,0,1-64.19-.06L231.15,509.78a15.73,15.73,0,0,0-2.37,1.08L148,580.39l-1.76,1.22a20.71,20.71,0,0,0-8.4,15.12l-.17,1.48Z"/><path class="cls-1" d="M1063.55,74.58l87,84.79-325,328.84L738,403.93Z"/><path class="cls-1" d="M1241.08,630.33c.14,2.47.35,4.48.35,6.49,0,35.24-.16,70.49.18,105.73.06,6.81-2.19,8.53-8.63,8.52q-169.76-.21-339.53,0c-7.47,0-9.6-2.58-9.54-9.78q.44-51.52,0-103.07c0-6.4,1.73-8.79,8.53-8.78q170.65.27,341.31.16C1236.05,629.63,1238.33,630.05,1241.08,630.33Z"/><path class="cls-1" d="M473,5H592.21V358.24H473Z"/></g></svg>