<svg xmlns="http://www.w3.org/2000/svg" viewBox="0 0 723 527"><defs><style>.cls-1{fill:#d4af37;}</style></defs><g id="Capa_1" data-name="Capa 1"><path class="cls-1" d="M520.27,436.09l-4.91-14.18,53.94-18.66,20-40-50.2,16.81-4.76-14.23,55.38-18.54,1.13,0A14.59,14.59,0,0,1,603.36,354a13.31,13.31,0,0,1,.74,13.17L582.35,410.7a13.06,13.06,0,0,1-5.72,5.81l-.49.25Z"/><path class="cls-1" d="M537.51,378.63l-4.9-14.17,129.16-44.68a5.82,5.82,0,0,0,2.14-2.34l44-87.9a6.11,6.11,0,0,0-.48-6.21,9,9,0,0,0-6.93-4.14L581.06,247.53l-62.9,14.28-3.32-14.62,62.83-14.27,121-28.72.79,0a24,24,0,0,1,20.62,11.11,21.2,21.2,0,0,1,1.22,21l-43.95,87.9a20.62,20.62,0,0,1-9,9.16l-.49.25-.51.18Z"/><path class="cls-1" d="M203.23,436.09l-55.87-19.33-.49-.25a13.12,13.12,0,0,1-5.72-5.81L119.4,367.21a13.31,13.31,0,0,1,.74-13.17,14.58,14.58,0,0,1,12.53-6.74l1.13,0,55.38,18.54-4.76,14.23-50.2-16.81,20,40,53.94,18.66Z"/><path class="cls-1" d="M186,378.63,55.7,333.56l-.49-.25a20.62,20.62,0,0,1-9-9.16L2.23,236.25a21.2,21.2,0,0,1,1.22-21,24,24,0,0,1,20.07-11.12h.55l.79,0,.76.18L145.9,232.94l62.76,14.25-3.32,14.62-62.83-14.26L23.05,219.19a9,9,0,0,0-6.93,4.14,6.11,6.11,0,0,0-.48,6.21l44,87.9a5.82,5.82,0,0,0,2.14,2.34l129.16,44.68Z"/><path class="cls-1" d="M435,188H288.22a16.12,16.12,0,0,1-14.81-9.31L223.52,67.85a14.73,14.73,0,0,1,1.79-15.17,16.43,16.43,0,0,1,15.7-6.1l79,12.66a1.55,1.55,0,0,0,1.42-.42l32.2-49a9.53,9.53,0,0,1,15.92,0l32.2,49a1.55,1.55,0,0,0,1.42.42l79-12.66a16.41,16.41,0,0,1,15.7,6.1,14.7,14.7,0,0,1,1.78,15.17L449.79,178.69A16.13,16.13,0,0,1,435,188ZM237.24,61.77l49.84,110.77a1.42,1.42,0,0,0,1.14.46H435a1.42,1.42,0,0,0,1.14-.46L486,61.77a1.46,1.46,0,0,0-1.39-.38l-79,12.66a16.37,16.37,0,0,1-16.33-7L361.6,25,334,67.06a16.37,16.37,0,0,1-16.33,7l-79-12.66A1.46,1.46,0,0,0,237.24,61.77Z"/><path class="cls-1" d="M362,527.5c-104.21,0-189-84.79-189-189a189,189,0,0,1,104.38-169l6.46-3.24,4.75,4.77h146l4.69-5.17,6.78,3.37A189,189,0,0,1,551,338.5C551,442.71,466.21,527.5,362,527.5ZM281.6,189.82A168.18,168.18,0,0,0,193,338.5c0,93.19,75.81,169,169,169s169-75.81,169-169a168.1,168.1,0,0,0-88.92-148.85A19.28,19.28,0,0,1,435,191H288.22A19.28,19.28,0,0,1,281.6,189.82Z"/></g></svg>