<svg xmlns="http://www.w3.org/2000/svg" viewBox="0 0 10016 1410"><defs><style>.cls-1{fill:#e43537;}.cls-2{fill:#fff;}.cls-3{fill:#e59f13;}</style></defs><g id="Formas"><path class="cls-1" d="M738.61,632.43c-4.24.23-7.13.52-10,.52-40.58,0-81.16-.14-121.74.17-6.9.06-10.4-2.3-13.69-8.33-33.42-61.28-82.64-103.08-152.49-114.89-88.11-14.9-158.46,17.49-212,87.55-36.15,47.29-46.27,101.92-38.84,159.62,11.64,90.33,63.33,151.07,147.7,180.55C429.57,969.79,535.23,936.1,591.67,834c4.65-8.42,9.29-11.4,18.89-11.24,39.09.63,78.19.26,117.29.26h11.44c-4.53,13.53-8,26.33-13,38.44C678.16,976.73,595.33,1053,471.39,1077c-218.7,42.3-373.42-111.59-406.61-263C43,714.47,53.51,618.64,111.56,532.37c47.49-70.57,108.9-125.51,193.06-148.17,201.87-54.33,371.58,60.55,427.43,226.48C734.37,617.56,736.26,624.59,738.61,632.43Z"/><path class="cls-1" d="M1491.2,1085.8H1356.75v-55.35c-3,1.73-5,2.56-6.65,3.87-33.14,26.87-71.78,40.7-113.33,47.19-36.49,5.69-72.93,7.29-109.09-3.16-59.94-17.33-97.31-63.29-101.91-125.44-2.11-28.55-1.24-56.85,6.51-84.5,14.76-52.71,51.46-83.95,101.22-102.35,33.55-12.4,68.65-17.46,103.66-23.08,26.56-4.26,53.17-8.24,79.66-12.9,25.24-4.43,40-30,34.1-58.12-3.36-16.08-11.45-28.7-27.2-34.72-10.14-3.87-20.7-8.45-31.27-9-20.86-1.13-42.22-2-62.73,1.22-31.07,4.83-52.82,31.3-58.46,65.79-.37,2.28-.78,4.57-1.25,7.35H1034.1c4.07-20.88,6.65-41.64,12.27-61.54,16.14-57.13,52.69-97.26,109.43-114,87.21-25.76,174-23.51,258.09,15,46.94,21.47,69.11,60,75.29,109.29,1.72,13.74,1.92,27.74,1.94,41.63q.21,190.11.08,380.22ZM1348.08,807.54c-9.19,4.58-18.17,10.93-28.13,13.66-26.17,7.16-52.86,12.36-79.16,19.09-15.38,3.93-31.47,7.22-45.36,14.41-33.58,17.41-41.1,47.25-35.57,82.29,4.92,31.12,22.5,47.86,53.7,51.09,14.44,1.5,29.78,1.07,43.89-2.13,47.2-10.68,82.6-35.85,88.91-87.28,3.65-29.72,2.07-60.08,2.81-90.15C1349.17,808.34,1348.79,808.16,1348.08,807.54Z"/><path class="cls-1" d="M1910,810.88c.47-135.24,80.46-249.44,196.19-285.06,180.5-55.55,336,67,362.5,217.32,21.43,121.73-16.32,222.3-117,295.87-107.27,78.36-254.58,66.18-350-26.2-43.72-42.33-74.71-91.5-85.67-151.89C1912.42,841.21,1911.2,821.07,1910,810.88Zm432.44-9.59c-1.8-88.08-68-151.64-148.41-153.19-86.06-1.65-152.71,75.15-152,152.55.73,83.37,68.38,153.23,149.86,153.45C2282.22,954.35,2341.1,876.75,2342.46,801.29Z"/><path class="cls-1" d="M1584.52,1085.84V538.94h127v67l1.94,1c2-2.22,4-4.36,5.83-6.68,21.56-27.4,47-50.56,79.28-64.15,30.79-13,62.94-21.87,97.73-21.78V652.48c-9.83-.46-19.26-.46-28.6-1.41-51.18-5.18-107.89,26.54-131.79,72.23-14.81,28.32-18.4,58.58-18.61,89.39-.6,87.35-.28,174.7-.32,262.06v11.09Z"/><path class="cls-1" d="M809.67,372H943.1v713.54H809.67Z"/><path class="cls-1" d="M2738.48,116.89l87.12,84.72-325.16,329-87.72-84.15Z"/><path class="cls-1" d="M2916.2,672.06V792.27c-3.9.23-7.35.59-10.81.59q-167.1,0-334.18,0c-11.86,0-11.9,0-11.91-11.59,0-33.47.09-66.93-.09-100.39,0-6.34,1.09-9.54,8.68-9.53q170.64.35,341.29.18C2911.23,671.55,2913.28,671.84,2916.2,672.06Z"/><path class="cls-1" d="M2148.46,47h118.87v353.1H2148.46Z"/><path class="cls-2" d="M4938.59,1083.29H4801.65v-14.9c0-106.24.16-212.48-.2-318.71a162.75,162.75,0,0,0-4.74-39c-10.8-42.66-44.41-65.85-91.51-64.46-42.31,1.25-76,29-83.91,70.13-2.3,12-2.83,24.53-2.85,36.81q-.33,156.89-.13,313.78v15.84H4481.08v-14.3c0-104.59.15-209.19-.18-313.78,0-14.3-.83-29-4.16-42.82-10.73-44.5-46.34-68.32-95.61-65.53-42.77,2.42-75.53,33.41-81.37,77.45a236.27,236.27,0,0,0-2,30.77q-.22,155.65-.09,311.3v17H4162V528.61h132.39v48.62c88-85.44,227.86-66.58,283.89,13.76,3.29-3,6.58-5.78,9.57-8.84,68.58-69.94,173.65-74,243.07-43.21,61.27,27.17,92.22,78.41,103.69,142.42,3,16.9,3.74,34.4,3.79,51.63.32,112,.16,224,.16,336Z"/><path class="cls-2" d="M2998.85,1220.75l89-83.26c.2.16,2.79,2.11,5.2,4.25,37.44,33.2,81.66,41.46,129.22,32.47,47-8.89,76.94-44.38,80.87-94.79,1.82-23.29.31-46.84.31-71.4-2,1.11-3.8,1.67-4.94,2.88-35.94,38.17-81.37,51.1-132.12,49.2-58-2.17-107.77-21.52-142.51-70.75-21.29-30.18-30.56-64.78-33.6-100.68-5.9-69.81-7.44-139.83,1.88-209.48,16.46-122.9,107.1-163.09,198.06-157.21,51.14,3.31,63.93,10.53,117.68,55.94V528.81h133.62v12.87q0,260-.05,520c-.16,136.62-96.15,231.66-233.24,232.26-46.88.2-92.94-2.63-136.52-22.09C3045.06,1259.92,3021.94,1243.16,2998.85,1220.75Zm307.8-430.31c-3.56-27.41-4.93-55.12-11.12-81.72-10.09-43.33-39-63.16-85.06-62.61-42.62.51-70.41,21.9-79.77,64.59-11.68,53.26-11.3,107,.16,160.34,5.16,24,17.25,44.45,40.51,56.05,52.44,26.14,110.85.77,124.39-55.86C3302,845.09,3303.14,817.72,3306.65,790.44Z"/><path class="cls-2" d="M5973.35,1220.56l89.22-83.13c18.51,17.67,42,33.25,70.67,36.52,20.63,2.35,42.2,3.58,62.51.22,43-7.13,70.31-34.64,78.32-76.89,5.45-28.73,4.53-58.66,6.7-91.55-5.14,3.42-6.85,4.15-8,5.39-35.29,37.42-79.86,50.49-129.76,49-57.53-1.67-107.3-20.05-142.7-68.11-23.76-32.28-33.07-69.81-36.09-108.69-5.19-67-6.44-134.09,1.91-200.94,15.83-126.57,107.93-165.66,199.06-160.71,44.08,2.39,81.21,19.16,111.35,51.41a31.77,31.77,0,0,0,3.73,3.2c.2.15.71-.11,2.25-.4V529h133.29v11.32c0,175,.41,350-.21,525-.28,79.58-30.35,145-98.22,190-38.72,25.63-82.24,37.06-128.4,38.47-44.66,1.37-88.91-.86-131.33-17.11C6026.43,1264.59,5999.47,1246.3,5973.35,1220.56Zm122.37-436.64c2.4,28,4,49.71,6.27,71.35a117.43,117.43,0,0,0,5.29,22.76c12,38,38.11,57.26,77.89,57.75,43,.53,71.25-17,82.36-56.25,6.74-23.81,9.15-49.18,10.66-74,2-33.25,1.12-66.7-8.33-99.1-11.9-40.78-38.92-60.36-82.23-60.31-43.56,0-70.83,19-80.95,61C6100.19,734.06,6098.67,762.2,6095.72,783.92Z"/><path class="cls-2" d="M3876.46,754.19c-1.66-21.3-1.43-41.2-5.14-60.35-5.05-26.16-23-42.4-48.4-49.23-31.1-8.38-62.7-8.41-94.18-1.71-25.36,5.4-44.3,20.94-61.15,40.59l-84.67-89.28c25.87-29.58,60-53.9,102.89-63.36,65.32-14.42,131-14.43,195.58,3.63,83.65,23.38,128.94,81.19,130.43,171.66,2,123.9.61,247.86.64,371.79a38.86,38.86,0,0,1-.8,5.23h-132.6v-46.09c-4.41,3.23-6.73,4.57-8.61,6.37-26.51,25.33-57.83,40.43-94.43,43.94-35.48,3.4-70.78,2.7-105.28-7.46-65-19.14-107.72-72.05-112-141.23-1.35-21.52-1-44,3.7-64.91,14.21-63.59,65.56-108.39,136.7-115.25,52.29-5,105.24-3.16,157.9-4.32C3862.67,754.08,3868.35,754.19,3876.46,754.19Zm.35,94.73c-31.71,0-60.4-.29-89.08.11-16,.23-32.22.12-47.89,2.79-31.53,5.36-50.17,27.44-50.9,57.49-.81,33.32,16.06,56.08,48.47,63.39a165.35,165.35,0,0,0,79.47-1.2c26.35-7,48.16-22.06,53.58-50.51C3874.85,897.91,3874.78,874,3876.81,848.92Z"/><path class="cls-2" d="M5834.25,1083.16H5698.57v-15.1c0-104.6.15-209.2-.18-313.8a188.47,188.47,0,0,0-4.17-40.37c-9.8-43.68-42.7-68.26-89-67.77-44.51.46-77.94,26.83-86.66,69.6-2.61,12.78-3.27,26.14-3.31,39.24q-.37,156.28-.14,312.56V1083h-136.3V528.73h132.79v49.82c6.3-5.63,10.08-9.1,14-12.46,65.55-56.81,174.34-60.57,240.38-7.59,45.73,36.69,67.36,86.55,68.16,143.66,1.73,125.16.81,250.37.94,375.55A42.44,42.44,0,0,1,5834.25,1083.16Z"/><path class="cls-2" d="M5087.76,1082.81V528.46h135.66v554.35Z"/><path class="cls-2" d="M5241.19,370.83c-.22,48-39.07,87.4-85.91,87.1-47.46-.3-86.81-40.67-86.19-88.42.61-47.5,40.22-86.2,87.51-85.5S5241.41,323.3,5241.19,370.83Z"/></g><g id="Letras"><path class="cls-3" d="M8339.81,1165.56,8301.55,1303H7513.73V186.45L7552,49h787.83V413.16L8301.55,550.6H8103.18V744.72l-38.26,56.68h274.89Zm-60.93-60.93V862.33H7893.47V683.79h148.78V510.92H7893.47V352.23h385.41V109.93H7614.33v994.7Z"/><path class="cls-3" d="M9002.93,777.31l-38.26,137.45H8861.24v77.93L8823,1130.13H8420.57V914.76h-141.7V577.52l38.26-137.44h103.44V362.15l38.26-137.45h402.41V440.08h141.69ZM8942,716.38V501H8800.31V285.63H8521.17V501H8379.48V716.38h141.69V931.76h279.14V716.38Z"/><path class="cls-3" d="M9769.48,920.42l-38.26,137.45-248,245.13H8942V186.45L8980.24,49h789.24ZM9708.55,895V109.93H9428v752.4H9323.14V109.93H9042.58v994.7h453.89Z"/><path class="cls-3" d="M7388.57,1300.29v-36.2h16.71v14.49h15.83V1265H7437v13.56h18.36v-15.93h16.7v37.64Z"/><path class="cls-3" d="M7413.84,1210.41v20.16h-6.19q-4.33,0-5.52.78a2.83,2.83,0,0,0-1.19,2.57,3.29,3.29,0,0,0,1.61,3,9.26,9.26,0,0,0,4.85,1,13.66,13.66,0,0,0,6.29-1.13c1.41-.71,3.11-2.76,5.1-6.13q8.61-14.49,14.13-18.26t17.78-3.76q8.93,0,13.15,2.08c2.82,1.4,5.19,4.08,7.09,8.07a31.91,31.91,0,0,1,2.86,13.93,31.2,31.2,0,0,1-3.29,14.87q-3.3,6.17-8.41,8.07t-14.49,1.91h-5.46v-20.16h10.15q4.7,0,6-.85a3.3,3.3,0,0,0,1.35-3,3.54,3.54,0,0,0-1.7-3.22,9.68,9.68,0,0,0-5.06-1.06c-4.91,0-8.13.67-9.64,2s-4,4.76-7.58,10.16a99,99,0,0,1-7.79,10.72,18,18,0,0,1-6.7,4.36,29.52,29.52,0,0,1-10.93,1.73q-9.6,0-14-2.45a16.46,16.46,0,0,1-6.93-7.91,31.58,31.58,0,0,1-2.5-13.21,34.44,34.44,0,0,1,2.73-14.41q2.73-6,6.88-7.88t14.1-1.94Z"/><path class="cls-3" d="M7388.57,1201.8v-21.86q0-8.88,1.39-13.64a15.3,15.3,0,0,1,4-7.17,13.87,13.87,0,0,1,6.37-3.25,56.89,56.89,0,0,1,11.58-.85h7.27q8,0,11.65,1.65a11.27,11.27,0,0,1,5.62,6.06,28.59,28.59,0,0,1,2,11.52v5.83h33.62v21.71Zm14.28-21.71h21.25c0-.62,0-1.15,0-1.6,0-2-.49-3.38-1.47-4.15s-3-1.16-6.11-1.16h-6.86q-4.28,0-5.57,1.34T7402.85,1180.09Z"/><path class="cls-3" d="M7437.45,1099.19q12.59,0,17.82.59a20,20,0,0,1,16.21,12.15,30.61,30.61,0,0,1,2.32,12.37,31.47,31.47,0,0,1-2.18,12,20.05,20.05,0,0,1-16.12,12.45,173.84,173.84,0,0,1-18.05.62h-14.28q-12.59,0-17.82-.59a19.94,19.94,0,0,1-16.21-12.14,30.66,30.66,0,0,1-2.32-12.38,31.47,31.47,0,0,1,2.19-12,20,20,0,0,1,16.11-12.45,176.93,176.93,0,0,1,18.05-.62ZM7410,1120.9c-3.88,0-6.37.21-7.45.64a2.57,2.57,0,0,0-1.63,2.66,3,3,0,0,0,1.32,2.6q1.32.9,7.76.9h39q7.28,0,9-.59a2.59,2.59,0,0,0,1.7-2.76,2.66,2.66,0,0,0-2-2.83c-1.31-.42-4.42-.62-9.34-.62Z"/><path class="cls-3" d="M7388.57,1091.09v-15.36q0-15.37,1.19-20.81a14.35,14.35,0,0,1,6.06-8.87q4.86-3.42,15.54-3.43,9.75,0,13.1,2.42c2.24,1.62,3.57,4.8,4,9.55q1.61-6.45,4.28-8.67a12.79,12.79,0,0,1,4.92-2.76q2.25-.54,12.36-.54h22v20.16h-27.74c-4.47,0-7.24.36-8.3,1.06s-1.6,2.55-1.6,5.55h37.64v21.7Zm14.28-21.7h18.57q0-3.67-1-5.14c-.67-1-2.84-1.47-6.52-1.47h-4.59c-2.65,0-4.38.48-5.21,1.42S7402.85,1066.87,7402.85,1069.39Z"/><path class="cls-3" d="M7388.57,990.49h16.71v12.89h66.77v21.71h-66.77v12.84h-16.71Z"/><path class="cls-3" d="M7413.84,939.54V959.7h-6.19q-4.33,0-5.52.78a2.84,2.84,0,0,0-1.19,2.58,3.28,3.28,0,0,0,1.61,3,9.26,9.26,0,0,0,4.85,1,13.81,13.81,0,0,0,6.29-1.12q2.12-1.08,5.1-6.14,8.61-14.49,14.13-18.26t17.78-3.76q8.93,0,13.15,2.09t7.09,8.07a31.84,31.84,0,0,1,2.86,13.92,31.2,31.2,0,0,1-3.29,14.87q-3.3,6.16-8.41,8.07t-14.49,1.91h-5.46V966.51h10.15q4.7,0,6-.85a3.3,3.3,0,0,0,1.35-3,3.55,3.55,0,0,0-1.7-3.22,9.78,9.78,0,0,0-5.06-1.06c-4.91,0-8.13.67-9.64,2s-4,4.77-7.58,10.16a100.51,100.51,0,0,1-7.79,10.73,18.11,18.11,0,0,1-6.7,4.35,29.32,29.32,0,0,1-10.93,1.73q-9.6,0-14-2.45a16.46,16.46,0,0,1-6.93-7.91,31.57,31.57,0,0,1-2.5-13.2,34.37,34.37,0,0,1,2.73-14.41q2.73-6,6.88-7.89t14.1-1.94Z"/><path class="cls-3" d="M7424.1,913.35V894.84h-18.57V882.26h18.57V863.64h12.58v18.62h18.46v12.58h-18.46v18.51Z"/><path class="cls-3" d="M7388.57,785.78l83.48,11v33l-83.48,12.55v-22.9q34.5-4,58.37-5.7-24.13-1.68-42.85-3.57l-15.52-1.51Z"/><path class="cls-3" d="M7388.57,760.41h83.48v21.71h-83.48Z"/><path class="cls-3" d="M7388.57,751.7V735.45q0-15.72,1.45-21.27a16.33,16.33,0,0,1,4.74-8.43,15.15,15.15,0,0,1,7.34-3.61q4.07-.72,15.91-.72h29.24c7.5,0,12.5.35,15,1.06a11.24,11.24,0,0,1,5.93,3.69,15.27,15.27,0,0,1,3,6.49,58.5,58.5,0,0,1,.85,11.65V751.7ZM7402.85,730h54.92q0-4.69-1.88-5.78t-10.24-1.08h-32.43a43.61,43.61,0,0,0-7.27.36,3.45,3.45,0,0,0-2.35,1.65C7403.1,726,7402.85,727.61,7402.85,730Z"/><path class="cls-3" d="M7388.57,693.32v-36.2h16.71v14.49h15.83V658.05H7437v13.56h18.36V655.68h16.7v37.64Z"/><path class="cls-3" d="M7437.45,599.84q12.59,0,17.82.59a19.92,19.92,0,0,1,16.21,12.15A30.61,30.61,0,0,1,7473.8,625a31.47,31.47,0,0,1-2.18,12,20.05,20.05,0,0,1-16.12,12.45,173.84,173.84,0,0,1-18.05.62h-14.28q-12.59,0-17.82-.59a19.94,19.94,0,0,1-16.21-12.14,30.66,30.66,0,0,1-2.32-12.38,31.47,31.47,0,0,1,2.19-12,20.06,20.06,0,0,1,16.11-12.46q5.16-.6,18.05-.61ZM7410,621.55c-3.88,0-6.37.21-7.45.64a2.57,2.57,0,0,0-1.63,2.66,3,3,0,0,0,1.32,2.6q1.32.9,7.76.9h39q7.28,0,9-.59a2.59,2.59,0,0,0,1.7-2.76,2.66,2.66,0,0,0-2-2.83c-1.31-.42-4.42-.62-9.34-.62Z"/><path class="cls-3" d="M7388.57,565.18h55.79q12.54,0,16.12.26a12.37,12.37,0,0,1,6.47,2.36,10.7,10.7,0,0,1,4,5.68,39,39,0,0,1,1.11,10.79v10.88h-14.59c.1-1.31.16-2.26.16-2.84a5.46,5.46,0,0,0-1.14-3.66,4.27,4.27,0,0,0-2.79-1.55,62.7,62.7,0,0,0-6.39-.2h-58.73Z"/><path class="cls-3" d="M7388.57,507.43h55.79a97.13,97.13,0,0,1,13.33.62,18.2,18.2,0,0,1,7.89,3.67,19,19,0,0,1,6.14,8,30.24,30.24,0,0,1,2.08,11.73,33,33,0,0,1-2.47,13.21,19.85,19.85,0,0,1-6.44,8.55,17.85,17.85,0,0,1-8.38,3.36q-4.41.51-18.54.51h-49.4V535.38h62.6q5.46,0,7-.59a2.32,2.32,0,0,0,1.52-2.4,2.5,2.5,0,0,0-1.68-2.65q-1.68-.6-7.91-.6h-61.52Z"/><path class="cls-3" d="M7388.57,499v-36.2h16.71v14.49h15.83V463.76H7437v13.56h18.36V461.39h16.7V499Z"/><path class="cls-3" d="M7419.3,405.34V427h-7.58c-4.78,0-7.76.21-9,.62a3.25,3.25,0,0,0-.26,5.68q1.55.72,7.94.72h40.07q5.61,0,7.4-.72a2.82,2.82,0,0,0,1.78-2.89,3.18,3.18,0,0,0-2-3.22q-2-.86-7.84-.86h-9.9v4.39h-12.69V405.34h44.81V419l-6,2a15.17,15.17,0,0,1,5.8,5.59,15.82,15.82,0,0,1,1.93,8,20.74,20.74,0,0,1-2.65,10.24,19.61,19.61,0,0,1-6.57,7.25,21,21,0,0,1-8.23,3.1,99.16,99.16,0,0,1-12.92.62h-24.8q-12,0-17.38-1.29t-9.92-7.4q-4.52-6.12-4.51-15.81,0-9.54,3.91-15.83t9.31-8.2q5.4-1.9,15.65-1.9Z"/><path class="cls-3" d="M7437.45,347.32q12.59,0,17.82.6a19.94,19.94,0,0,1,16.21,12.14,30.66,30.66,0,0,1,2.32,12.38,31.5,31.5,0,0,1-2.18,12,20.1,20.1,0,0,1-16.12,12.45,176.8,176.8,0,0,1-18.05.62h-14.28q-12.59,0-17.82-.59a20,20,0,0,1-16.21-12.15,30.61,30.61,0,0,1-2.32-12.37,31.52,31.52,0,0,1,2.19-12.05,20.07,20.07,0,0,1,16.11-12.45,176.93,176.93,0,0,1,18.05-.62ZM7410,369c-3.88,0-6.37.22-7.45.65a2.57,2.57,0,0,0-1.63,2.65,3,3,0,0,0,1.32,2.6q1.32.92,7.76.91h39q7.28,0,9-.6a2.58,2.58,0,0,0,1.7-2.75,2.67,2.67,0,0,0-2-2.84q-2-.61-9.34-.62Z"/><path class="cls-3" d="M7413.84,293.23v20.16h-6.19q-4.33,0-5.52.78a2.84,2.84,0,0,0-1.19,2.58,3.28,3.28,0,0,0,1.61,3,9.26,9.26,0,0,0,4.85,1,13.81,13.81,0,0,0,6.29-1.12q2.12-1.08,5.1-6.14,8.61-14.49,14.13-18.26t17.78-3.76q8.93,0,13.15,2.09t7.09,8.07a31.84,31.84,0,0,1,2.86,13.92,31.2,31.2,0,0,1-3.29,14.87q-3.3,6.17-8.41,8.07t-14.49,1.91h-5.46V320.2h10.15q4.7,0,6-.85a3.28,3.28,0,0,0,1.35-3,3.55,3.55,0,0,0-1.7-3.22,9.78,9.78,0,0,0-5.06-1.06c-4.91,0-8.13.68-9.64,2s-4,4.77-7.58,10.16a100.51,100.51,0,0,1-7.79,10.73,18.25,18.25,0,0,1-6.7,4.36,29.54,29.54,0,0,1-10.93,1.72q-9.6,0-14-2.45a16.46,16.46,0,0,1-6.93-7.91,31.5,31.5,0,0,1-2.5-13.2,34.37,34.37,0,0,1,2.73-14.41q2.73-6,6.88-7.89t14.1-1.94Z"/><rect class="cls-2" x="6746" y="47" width="102" height="1247"/></g></svg>