<svg xmlns="http://www.w3.org/2000/svg" viewBox="0 0 50 50"><g id="Capa_1" data-name="Capa 1"><path d="M26.32,6.73h9.1l.28.06a8.33,8.33,0,0,1,7.42,8.13q.06,10.49,0,21a8.3,8.3,0,0,1-5.72,7.75c-.64.2-1.32.3-2,.45h-9.1c0-.12,0-.25,0-.37V7.09C26.33,7,26.32,6.85,26.32,6.73Zm4,19.8a4.42,4.42,0,1,0,4.43-4.42A4.43,4.43,0,0,0,30.31,26.53Z"/><path d="M24.13,44.09H13.65a1.64,1.64,0,0,0-.28-.07,8.34,8.34,0,0,1-7.31-6.57c-.08-.36-.14-.73-.21-1.1V14.46a1.28,1.28,0,0,0,.07-.28,8.35,8.35,0,0,1,6-7.09c.55-.16,1.13-.24,1.69-.36H24.13c0,.12,0,.24,0,.36V43.72C24.12,43.84,24.13,44,24.13,44.09ZM22,8.9H14.31A6.19,6.19,0,0,0,8,15.19Q8,25.41,8,35.62a6.19,6.19,0,0,0,6.27,6.29H22Z"/><path d="M19.39,17.7A4.4,4.4,0,1,1,15,13.3,4.43,4.43,0,0,1,19.39,17.7Z"/></g></svg>