<svg xmlns="http://www.w3.org/2000/svg" viewBox="0 0 50 50"><defs><style>.cls-1{fill:#fff;}</style></defs><g id="Capa_1" data-name="Capa 1"><path class="cls-1" d="M26.63,6.77h9.1c.1,0,.19.06.28.07A8.31,8.31,0,0,1,43.43,15q.06,10.49,0,21a8.3,8.3,0,0,1-5.72,7.75c-.64.21-1.32.3-2,.45h-9.1c0-.12,0-.24,0-.36V7.13C26.64,7,26.63,6.89,26.63,6.77Zm4,19.81a4.42,4.42,0,1,0,4.42-4.42A4.41,4.41,0,0,0,30.63,26.58Z"/><path class="cls-1" d="M24.44,44.13H14c-.1,0-.19-.06-.28-.07a8.33,8.33,0,0,1-7.31-6.57c-.08-.36-.14-.73-.21-1.1V14.5a1.38,1.38,0,0,0,.08-.27,8.33,8.33,0,0,1,5.95-7.1c.55-.15,1.13-.24,1.69-.36H24.44c0,.12,0,.24,0,.36V43.77C24.43,43.89,24.44,44,24.44,44.13ZM22.26,8.94H14.62a6.18,6.18,0,0,0-6.28,6.28q0,10.22,0,20.43A6.19,6.19,0,0,0,14.61,42h7.65Z"/><path class="cls-1" d="M19.7,17.75a4.4,4.4,0,1,1-4.38-4.4A4.43,4.43,0,0,1,19.7,17.75Z"/></g></svg>