<svg xmlns="http://www.w3.org/2000/svg" viewBox="0 0 671 678"><defs><style>.cls-1{fill:#fff;}</style></defs><g id="Logos"><path class="cls-1" d="M117.72,266V357H6.12V13.26h5.52q76.5,0,153,0c23.36.05,46.2,3.42,67.76,12.87,37.41,16.4,60.42,44.64,67.71,84.89,7.39,40.85,0,78.4-28.16,110.16-22.19,25.07-51,38.28-83.72,42.55-16.6,2.17-33.56,1.68-50.36,2.24C131.41,266.22,124.94,266,117.72,266Zm.33-89.41c16.59-.87,33.14,2,49.3-2.26,12.32-3.22,20.75-11.11,23.77-23.84,5.25-22.14-8.06-42-30.69-44.27-13.69-1.38-27.6-.58-41.41-.73-.26,0-.53.35-1,.66Z"/><path class="cls-1" d="M667.13,66.81l-81.26,71.54c-27.11-32.77-83-31.64-108.71-4.3-26.65,28.35-25.48,79.42,2.49,106.23,25.88,24.8,81,27.63,111.62-12.4l79.24,68.46c-5.64,6.31-10.68,12.71-16.5,18.3-27.37,26.37-60.52,40.75-97.87,45.66-39.85,5.24-78.65,1.13-114.95-16.95-55-27.39-87.35-72.1-94.05-133-8.21-74.7,19.93-133.72,83.42-174.48C464.24,14.22,502,6.61,541.83,8.66c29.88,1.54,58.28,8.35,84.45,23.23C641.92,40.78,655.77,51.83,667.13,66.81Z"/><path class="cls-1" d="M395.69,586.29v69.37H348.26V503h11.89c11.49,0,23,.15,34.48-.1,3.41-.07,4.94,1.14,6.34,4.09,9.79,20.6,19.76,41.11,29.68,61.64.71,1.46,1.49,2.88,2.65,5.1,1.42-2.84,2.51-5,3.56-7.14,9.62-19.94,19.3-39.85,28.8-59.85,1.33-2.81,2.84-3.86,6-3.82,13.66.18,27.32.07,41,.09,1.29,0,2.59.11,4.09.18V655.62H468.36V588.29l-1.08-.17c-6.68,14.06-13.5,28-20,42.22-1.61,3.52-3.34,5.13-7.38,4.82a127.32,127.32,0,0,0-16,0c-3.14.16-4.71-1-6-3.81-6.59-13.82-13.38-27.55-20.12-41.3C397.38,589.18,396.88,588.39,395.69,586.29Z"/><path class="cls-1" d="M148.85,524.89l-35,33.93c-10-9.46-22.32-14.26-36.85-10.72-8.53,2.08-14.84,7.3-19.06,15-9.44,17.27-3.2,40.1,13.15,48.19,15.23,7.53,34.36,2.12,40.43-12H83V567.52c1.64-.1,3.09-.28,4.54-.28,22.5,0,45,.06,67.5-.09,3.5,0,4.87.93,5.52,4.5,7.53,40.92-22.73,81.87-64.12,86.17C65.92,661,39.36,652.73,20,627.88-16.09,581.42,10.83,513,69.33,502.1c22.53-4.2,44.21-1.48,64.05,10.66C138.69,516,143.28,520.47,148.85,524.89Z"/><path class="cls-1" d="M5.08,440.57V417.14H668v23.43Z"/><path class="cls-1" d="M598.36,562.26h58.12v34.33H598.32v16.49H669.7v42.63H548.24V503.24H667.3v42.13H598.36Z"/><path class="cls-1" d="M331.63,656h-36.7c-5,0-10,.23-15-.14a5.72,5.72,0,0,1-4-3,140.57,140.57,0,0,1-4.62-14.23c-.68-2.41-1.66-3.58-4.42-3.55-13.32.13-26.64-.05-40,.21-1.47,0-3.62,1.91-4.22,3.43-1.83,4.62-2.93,9.53-4.62,14.22-.44,1.23-2,2.93-3.07,2.94-16.26.19-32.53.13-49.48.13,2.11-5.72,4-10.84,5.88-15.93q25-66.32,50-132.64c1.21-3.22,2.56-4.67,6.29-4.6,13.65.26,27.31.15,41,.07,2.57,0,4.17.41,5.24,3.2q28.29,73.33,56.79,146.59C331,653.6,331.22,654.57,331.63,656Zm-84.55-94.6-1,0-11.85,36.49h23.94C254.41,585.43,250.75,573.42,247.08,561.42Z"/></g></svg>