<svg xmlns="http://www.w3.org/2000/svg" viewBox="0 0 50 50"><defs><style>.cls-1{fill:#fff;}</style></defs><g id="Capa_1" data-name="Capa 1"><path class="cls-1" d="M26.57,44.11,19,41.78v-35l2.36.56c2.75.68,5.46,1.48,8.14,2.36a18,18,0,0,1,5.11,2.51,9.21,9.21,0,0,1,2.81,3.26,10,10,0,0,1,.93,3.22,19.19,19.19,0,0,1,.15,3.12,9.12,9.12,0,0,1-.83,3.82,5.06,5.06,0,0,1-3,2.67,5,5,0,0,1-3,0c-.63-.17-1.25-.43-1.87-.64-.14-.05-.17-.12-.17-.26V16a4.93,4.93,0,0,0-.25-1.74,2.06,2.06,0,0,0-1.64-1.33.68.68,0,0,0-.66.22,1.67,1.67,0,0,0-.51,1.07c0,.24,0,.49,0,.74v29.2Z"/><path class="cls-1" d="M28.55,43.41V39c0-.13,0-.19.16-.23q4.74-1.7,9.45-3.4c1-.37,2-.78,3.05-1.19a2.69,2.69,0,0,0,.62-.39.4.4,0,0,0,.07-.56.92.92,0,0,0-.64-.44c-.38-.09-.77-.18-1.16-.25a4.7,4.7,0,0,0-2,.13c-2.22.55-4.34,1.39-6.5,2.12l-2.86,1-.14,0c0-.07,0-.13,0-.19V31.41c0-.13,0-.2.16-.24A27.6,27.6,0,0,1,34.24,30a29.64,29.64,0,0,1,4.8-.16,22.18,22.18,0,0,1,7.8,1.91,4.82,4.82,0,0,1,1.49,1,1.94,1.94,0,0,1,0,2.83,4.78,4.78,0,0,1-1.44,1,45.64,45.64,0,0,1-4.52,1.86q-6.82,2.4-13.65,4.84Z"/><path class="cls-1" d="M16.66,28v.2c0,1.41,0,2.81,0,4.22a.24.24,0,0,1-.19.26c-2.43.85-4.86,1.69-7.28,2.56A8.43,8.43,0,0,0,8,35.77a.48.48,0,0,0-.1.83,1,1,0,0,0,.61.27c.7.09,1.4.21,2.1.28a3.06,3.06,0,0,0,.79-.1c.64-.12,1.29-.23,1.92-.37a9.59,9.59,0,0,0,1-.35l2.17-.84.15-.05c0,.07,0,.13,0,.18V39.2c0,.15,0,.2-.19.22a28.85,28.85,0,0,1-4.64.29A27.47,27.47,0,0,1,6.05,39,18.24,18.24,0,0,1,2.9,38a5.27,5.27,0,0,1-1.75-1.11,3,3,0,0,1-.49-.68,1.41,1.41,0,0,1,.18-1.68,6.31,6.31,0,0,1,1.83-1.38,29.67,29.67,0,0,1,4-1.68l8.36-3C15.58,28.28,16.11,28.13,16.66,28Z"/></g></svg>