<svg xmlns="http://www.w3.org/2000/svg" viewBox="0 0 50 50"><g id="Capa_1" data-name="Capa 1"><path d="M26.76,42.57,19.2,40.24v-35l2.36.56c2.75.67,5.46,1.47,8.14,2.36a18,18,0,0,1,5.11,2.51,9.26,9.26,0,0,1,2.81,3.25,10.08,10.08,0,0,1,.93,3.23,19.13,19.13,0,0,1,.15,3.12,9.11,9.11,0,0,1-.83,3.81,5,5,0,0,1-3,2.68,5,5,0,0,1-3,0c-.63-.17-1.25-.43-1.88-.64a.23.23,0,0,1-.17-.26c0-3.83,0-7.65,0-11.48a4.9,4.9,0,0,0-.25-1.74A2.06,2.06,0,0,0,28,11.34a.69.69,0,0,0-.66.21,1.71,1.71,0,0,0-.51,1.07c0,.25,0,.5,0,.75v29.2Z"/><path d="M28.74,41.87V37.5c0-.13,0-.19.16-.23,3.15-1.13,6.31-2.26,9.45-3.4,1-.37,2-.78,3-1.19a2.43,2.43,0,0,0,.62-.4.38.38,0,0,0,.07-.55.92.92,0,0,0-.64-.44c-.38-.09-.77-.18-1.16-.25a4.7,4.7,0,0,0-2,.13c-2.22.54-4.34,1.39-6.5,2.12l-2.86,1-.14,0c0-.07,0-.13,0-.19V29.87c0-.13,0-.2.16-.24a27.6,27.6,0,0,1,5.53-1.15,29.64,29.64,0,0,1,4.8-.16A22,22,0,0,1,47,30.23a4.82,4.82,0,0,1,1.49,1,1.94,1.94,0,0,1,0,2.83,4.78,4.78,0,0,1-1.44,1A43.28,43.28,0,0,1,42.6,37Q35.76,39.37,29,41.8Z"/><path d="M16.85,26.42v4.42a.21.21,0,0,1-.18.25c-2.43.85-4.86,1.7-7.28,2.57a7.44,7.44,0,0,0-1.17.57.48.48,0,0,0-.1.83.93.93,0,0,0,.61.27c.7.09,1.4.21,2.1.28a3.06,3.06,0,0,0,.79-.1c.64-.12,1.28-.23,1.92-.37a9.59,9.59,0,0,0,1-.35L16.69,34l.15-.05c0,.07,0,.13,0,.18v3.58c0,.15,0,.2-.19.22a30.09,30.09,0,0,1-4.65.28,26.8,26.8,0,0,1-5.77-.72,18.28,18.28,0,0,1-3.15-1,5.24,5.24,0,0,1-1.75-1.1,3,3,0,0,1-.49-.68A1.4,1.4,0,0,1,1,33a6,6,0,0,1,1.83-1.38,30.08,30.08,0,0,1,4-1.68l8.37-3C15.77,26.73,16.3,26.59,16.85,26.42Z"/></g></svg>