<svg xmlns="http://www.w3.org/2000/svg" viewBox="0 0 50 50"><defs><style>.cls-1{fill:#fff;}</style></defs><g id="Capa_1" data-name="Capa 1"><path class="cls-1" d="M45.76,12.14,42.58,8.71a2.76,2.76,0,0,0-4.39.45l-.64,1.07a4.34,4.34,0,0,0-.84-.64l.79-1.38a2.6,2.6,0,0,0-1-3.56L32.3,2.23a2.62,2.62,0,0,0-3.84,1.65l-.91,3.75c-.45-.11-.9-.24-1.34-.39h0V2.61A2.61,2.61,0,0,0,23.57,0H18.69a2.61,2.61,0,0,0-2.5,3.34l.51,1.75L12.81,7a4.11,4.11,0,0,0-2.35,2.38l-2,4.85L4.39,16.48a2.64,2.64,0,0,0-1.32,1.93,2.6,2.6,0,0,0,.75,2.21L5.24,22l-1,2.5,0,.05a4,4,0,0,0,2.3,5.21l2.22.82,4,6.07a1.48,1.48,0,0,1,.24.82v6.38a4,4,0,0,0,3.32,4L28,49.94a3.78,3.78,0,0,0,3-.76,3.76,3.76,0,0,0,1.44-2.76l.38-6.69a1.39,1.39,0,0,1,.66-1.09L36,37.13a4.09,4.09,0,0,0,3.1-3.34L41,20.12l4.63-4.29h0A2.55,2.55,0,0,0,46.45,14,2.62,2.62,0,0,0,45.76,12.14ZM31.31,5.2,34.6,7.09l-4.8,8.4L28.93,15Zm-5.13,8V10.45l.65.17-.65,2.7ZM23.11,3.07v9.69h-1l-2.8-9.69ZM6.51,19l-.09-.08L9.74,17,14,24.6l.5.88-.87.48L6.51,19Zm.56,6.71.53-1.3,1,1L11,27.72a.8.8,0,0,1-.79.15l-2.65-1A1,1,0,0,1,7.07,25.66Zm22.72,13.9-.39,6.68a.74.74,0,0,1-.27.53.71.71,0,0,1-.58.14l-11.73-2.1a1,1,0,0,1-.78-.94V37.49A4.47,4.47,0,0,0,15.28,35l-2.95-4.47a4.79,4.79,0,0,0,.82-.6l1.06-.86a2.52,2.52,0,0,0,.57-.23l1.58-.88a2.65,2.65,0,0,0,1.26-1.66l.44-.36h0l.58-.47.11-.1a.82.82,0,0,1,.8-.23l5.91,1.56a.83.83,0,0,1,.57.6l0,.07L28.65,34a3.87,3.87,0,0,0,2.51,2.59A4.42,4.42,0,0,0,29.79,39.56ZM36,33.31a1,1,0,0,1-1,.84l-2.79-.46a.83.83,0,0,1-.64-.61l0-.07L29,26.35a3.92,3.92,0,0,0-2.72-2.64l-5.91-1.57a3.9,3.9,0,0,0-3.67,1h0l-4.45-8a1.37,1.37,0,0,0-.13-.2.18.18,0,0,0-.05-.07l-.08-.12a.6.6,0,0,0-.08-.08l-.07-.08-.1-.1h0l1.64-4,0,0a1,1,0,0,1,.59-.62l.08,0,3.55-1.73L19.26,14a2.61,2.61,0,0,0,2.5,1.88h1.81a2.6,2.6,0,0,0,2.36-1.5l-.07.28a2.62,2.62,0,0,0,1.24,2.88l1.57.9a2.61,2.61,0,0,0,1.3.35,2.35,2.35,0,0,0,.69-.1,2.58,2.58,0,0,0,1.58-1.22l2.93-5.13h.09l.09.08.45.75-3,4.92a3.23,3.23,0,0,0,.4,3.86l.74.8a2.83,2.83,0,0,0,2,.92h.11a2.85,2.85,0,0,0,1.37-.35Zm0-12.84-.6-.65a.15.15,0,0,1,0-.18l5.15-8.53,2.58,2.78Z"/></g></svg>