<svg xmlns="http://www.w3.org/2000/svg" viewBox="0 0 50 50"><defs><style>.cls-1{fill:#fff;}</style></defs><g id="Capa_1" data-name="Capa 1"><path class="cls-1" d="M31.08,45.42a6.16,6.16,0,1,1,6.16-6.16A6.16,6.16,0,0,1,31.08,45.42Zm0-9.54a3.38,3.38,0,1,0,3.37,3.38A3.39,3.39,0,0,0,31.08,35.88Z"/><path class="cls-1" d="M15.27,32.35,4.89,28.76l-.09-.05a2.41,2.41,0,0,1-1.06-1.08l-3.48-7A2.45,2.45,0,0,1,.4,18.23,2.65,2.65,0,0,1,2.72,17h.15l9.67,2.3L11.9,22,3,19.87l3.19,6.38,10,3.47Z"/><path class="cls-1" d="M33.6,31.61,32.69,29l10-3.46,3.19-6.39L37,21.24l-.64-2.71L46,16.24h.15a2.7,2.7,0,0,1,2.32,1.25,2.47,2.47,0,0,1,.14,2.45l-3.48,7A2.41,2.41,0,0,1,44.07,28L44,28Z"/><path class="cls-1" d="M41.11,41.09a8.9,8.9,0,0,1-8.89-8.89,9.07,9.07,0,0,1,.38-2.59l.21-.68,9.9-3.42,1-1.93,1.23.58a8.89,8.89,0,0,1-3.79,16.93Zm-6-10A6,6,0,0,0,35,32.2a6.11,6.11,0,1,0,9.83-4.84,2.5,2.5,0,0,1-.76.61L44,28Z"/><path class="cls-1" d="M33,13.59l-1.52,3.35a1.79,1.79,0,0,1-.12.24A9.69,9.69,0,1,1,17,17.08L16.92,17,15.37,13.5A13.41,13.41,0,1,0,33,13.59Z"/><path class="cls-1" d="M29.61,18.22H18.78A2,2,0,0,1,16.92,17L13.24,8.86a1.94,1.94,0,0,1,.23-2,2,2,0,0,1,2-.77L20.8,7l2.1-3.21a1.55,1.55,0,0,1,2.58,0L27.59,7,33,6.12a2,2,0,0,1,1.95.77,1.9,1.9,0,0,1,.23,2L31.46,17A2,2,0,0,1,29.61,18.22ZM19.25,15.43h9.88L32,9.09l-4.41.71a2.06,2.06,0,0,1-2-.88l-1.34-2-1.33,2a2.06,2.06,0,0,1-2,.88L16.4,9.09Zm8.61-8Z"/></g></svg>