<svg xmlns="http://www.w3.org/2000/svg" viewBox="0 0 50 50"><g id="Capa_1" data-name="Capa 1"><path id="path2-7" d="M8.73,31.66,8,29.86l6.78.35-.3,2.9Zm1.63-14L.89,22.19l1.45,6.74H4.28L4,24.08,4.23,24l1.19,4.93h2l0-5.9.26-.09,1,6H10.8l.48-7.09.31-.13.53,7.22h2.77l1-9.87ZM47.75,31.44,45.07,31v-.35l2.6-.09-.05-.66h-3.3l-.18,1.67,2.73.49v.31L44,32.5l-.09.61h4ZM22,31.18l-.05.61,1,.05v.61l-2.07,0L21,30.6l2.82,0,0-.66H20.09l-.31,3.21h4.14l-.09-2ZM39.6,32.37v-.58l1.94,0v-.62l-2,0v-.57l2.6-.05v-.66H38.64l-.09,3.3h3.7l0-.66Zm-2.81.74-.36-3.25h-.92L34.14,31.4l-1.36-1.54h-.93l-.31,3.25h1.1L32.73,31l1.41,1.45L35.55,31l.09,2.11ZM32.12,17.92H29.91L29.74,28h2.64Zm9,0H34.23L34,28h7.62ZM39,25.8l-2.42.09-.14-5.95L39,20Zm10.35-5.68-.26-2.2H42.29l.09,1.94,2.16.08L44.76,28h2.69l-.8-8ZM25.6,28h2.9l-1.89-4.54,1.5-.84-1-4.71h-7.4l-.26,2.2,1.67,0-.79,8h2.6L23,25.49l1.85-1Zm-2.47-8.07,2.11,0,.27,2L23,23.07Zm5.73,13.17H30l-.88-3.25H26.43l-.88,3.25h1.1l.18-.83,1.81,0ZM27,31.66l.22-1.06,1.05,0,.22,1.06Z"/><path d="M40.23,28.92s0,0,0,0,0,0,0,0Z"/><polygon points="41.24 22.41 41.23 22.41 41.24 22.4 41.24 22.41"/></g></svg>