<svg xmlns="http://www.w3.org/2000/svg" viewBox="0 0 50 50"><defs><style>.cls-1{fill:#fff;}</style></defs><g id="Capa_1" data-name="Capa 1"><path id="path2-7" class="cls-1" d="M9,32.7l-.71-1.8,6.79.35-.31,2.91Zm1.63-14L1.2,23.23,2.65,30H4.59l-.31-4.84L4.54,25,5.73,30h2l0-5.9L7.94,24l1,6h2.16l.48-7.09.31-.13L12.43,30H15.2l1-9.86ZM48.06,32.48,45.38,32v-.35L48,31.6l0-.66h-3.3l-.18,1.68,2.73.48v.31l-2.86.13-.09.62h4Zm-25.72-.26,0,.62,1,0v.62l-2.07,0,.09-1.8,2.82,0,0-.66H20.4l-.31,3.22h4.14l-.08-2Zm17.58,1.19v-.57l1.93-.05v-.62l-2,0v-.57l2.6,0v-.66H39l-.09,3.31h3.7l-.05-.66Zm-2.82.75-.36-3.26h-.92l-1.37,1.54L33.09,30.9h-.93l-.31,3.26H33L33,32l1.41,1.46L35.86,32,36,34.16ZM32.43,19H30.22l-.17,10.09h2.64Zm9,0H34.54l-.26,10.09H41.9ZM39.3,26.84l-2.42.09L36.74,21l2.56.08Zm10.35-5.68L49.39,19H42.6l.09,1.94,2.16.09.22,8.06h2.69l-.8-8ZM25.91,29.05h2.9l-1.89-4.54,1.5-.84-1-4.71H20l-.26,2.2,1.67,0-.79,8h2.6l.09-2.55,1.85-1ZM23.44,21l2.12,0,.26,2-2.47,1.14Zm5.73,13.17h1.1l-.88-3.26H26.74l-.88,3.26H27l.18-.84,1.81,0ZM27.32,32.7l.22-1.05,1.05,0,.22,1.06Z"/></g></svg>