<svg xmlns="http://www.w3.org/2000/svg" viewBox="0 0 723 381"><defs><style>.cls-1{fill:silver;}</style></defs><g id="Capa_1" data-name="Capa 1"><path class="cls-1" d="M520.27,290.09l-4.91-14.18,53.94-18.66,20-40-50.2,16.81-4.76-14.23,55.38-18.54,1.13,0A14.52,14.52,0,0,1,603.36,208a13.31,13.31,0,0,1,.74,13.17L582.35,264.7a13.06,13.06,0,0,1-5.72,5.81l-.49.25Z"/><path class="cls-1" d="M537.51,232.63l-4.9-14.17,129.16-44.68a5.82,5.82,0,0,0,2.14-2.34l44-87.9a6.11,6.11,0,0,0-.48-6.21,9,9,0,0,0-6.93-4.14L581.06,101.53l-62.9,14.28-3.32-14.62,62.83-14.27,121-28.72.79,0a24,24,0,0,1,20.62,11.11,21.2,21.2,0,0,1,1.22,21l-43.95,87.9a20.62,20.62,0,0,1-9,9.16l-.49.25-.51.18Z"/><path class="cls-1" d="M203.23,290.09l-55.87-19.33-.49-.25a13.12,13.12,0,0,1-5.72-5.81L119.4,221.21a13.31,13.31,0,0,1,.74-13.17,14.61,14.61,0,0,1,12.53-6.74l1.13,0,55.38,18.54-4.76,14.23-50.2-16.81,20,40,53.94,18.66Z"/><path class="cls-1" d="M186,232.63,55.7,187.56l-.49-.25a20.62,20.62,0,0,1-9-9.16L2.23,90.25a21.2,21.2,0,0,1,1.22-21A24.06,24.06,0,0,1,24.07,58.18l.79,0,.76.18L145.9,86.94l62.76,14.25-3.32,14.62-62.83-14.26L23.05,73.19a9,9,0,0,0-6.93,4.14,6.11,6.11,0,0,0-.48,6.21l44,87.9a5.82,5.82,0,0,0,2.14,2.34l129.16,44.68Z"/><path class="cls-1" d="M362,381c-104.21,0-189-84.79-189-189S257.79,3,362,3,551,87.79,551,192,466.21,381,362,381Zm0-358c-93.19,0-169,75.81-169,169s75.81,169,169,169,169-75.81,169-169S455.19,23,362,23Z"/></g></svg>