<svg xmlns="http://www.w3.org/2000/svg" viewBox="0 0 50 50"><defs><style>.cls-1{fill:#fff;}</style></defs><g id="Capa_1" data-name="Capa 1"><path class="cls-1" d="M26.38,44.13h-2l-.2,0C23.47,44,22.71,44,22,43.8A18.47,18.47,0,0,1,8,32.31c-.17-.41-.3-.83-.46-1.29l.17.06,6.7,2.86a.48.48,0,0,1,.21.25,12.86,12.86,0,0,0,.53,1.34,5.08,5.08,0,0,0,6.12,2.58,5.56,5.56,0,0,0,3.67-5,.61.61,0,0,1,.27-.52L31,28.23a.64.64,0,0,1,.38-.12A6.83,6.83,0,0,0,35.16,27a7.79,7.79,0,0,0,2.12-10.92,6.82,6.82,0,0,0-10.16-1.45,7.58,7.58,0,0,0-2.68,5.68.57.57,0,0,1-.08.32c-1.44,2.11-2.88,4.2-4.32,6.3a.38.38,0,0,1-.26.14,5.08,5.08,0,0,0-3.05,1,.37.37,0,0,1-.29,0L7,23.94a.24.24,0,0,1-.16-.29c0-.37.08-.74.14-1.11A18.72,18.72,0,0,1,23.19,6.9l1.23-.13h2l.18,0c1,.15,2.05.23,3,.46A18.66,18.66,0,0,1,43.93,27.85,18.19,18.19,0,0,1,39.2,38a18.32,18.32,0,0,1-11.59,6Z"/><path class="cls-1" d="M36.37,20.62a5,5,0,0,1-1.63,3.6A4.49,4.49,0,0,1,28,23.57,5.26,5.26,0,0,1,28.24,17a4.54,4.54,0,0,1,7.49.91A5.53,5.53,0,0,1,36.37,20.62Zm-8.24-.19a6.13,6.13,0,0,0,.26,1.42A3.48,3.48,0,0,0,34,23.33a4,4,0,0,0-.15-5.92,3.38,3.38,0,0,0-4.31,0A3.81,3.81,0,0,0,28.13,20.43Z"/><path class="cls-1" d="M16.22,34.68l2.19.94a2.93,2.93,0,0,0,3.32-.69,3,3,0,0,0-.91-4.82c-.77-.36-1.55-.69-2.32-1l-.27-.13a3,3,0,0,1,1.09-.32,3.78,3.78,0,0,1,3.48,1.45A4.47,4.47,0,0,1,22,36.38a3.84,3.84,0,0,1-5.78-1.55A.48.48,0,0,1,16.22,34.68Z"/></g></svg>