<svg xmlns="http://www.w3.org/2000/svg" viewBox="0 0 50 50"><g id="Capa_1" data-name="Capa 1"><path d="M27.07,44.09h-2l-.2,0c-.75-.1-1.51-.14-2.25-.29A18.47,18.47,0,0,1,8.73,32.27c-.17-.41-.3-.83-.47-1.29l.18.06,6.7,2.86a.48.48,0,0,1,.21.25,12.86,12.86,0,0,0,.53,1.34A5.08,5.08,0,0,0,22,38.07a5.56,5.56,0,0,0,3.67-5,.61.61,0,0,1,.27-.52c1.91-1.43,3.81-2.88,5.72-4.32a.71.71,0,0,1,.38-.12A6.84,6.84,0,0,0,35.85,27,7.79,7.79,0,0,0,38,16.08a6.82,6.82,0,0,0-10.16-1.45,7.56,7.56,0,0,0-2.68,5.67.6.6,0,0,1-.08.33l-4.32,6.3a.38.38,0,0,1-.26.13,5.08,5.08,0,0,0-3,1,.37.37,0,0,1-.29,0L7.67,23.89a.22.22,0,0,1-.16-.28c0-.37.08-.74.14-1.11A18.37,18.37,0,0,1,13.09,12,18.27,18.27,0,0,1,23.88,6.86l1.23-.13h2l.18,0c1,.15,2,.23,3,.46A18.65,18.65,0,0,1,44.62,27.8,18.19,18.19,0,0,1,39.89,38,18.32,18.32,0,0,1,28.3,44Z"/><path d="M37.05,20.58a4.94,4.94,0,0,1-1.62,3.6,4.5,4.5,0,0,1-6.74-.65A5.26,5.26,0,0,1,28.93,17a4.54,4.54,0,0,1,7.49.91A5.47,5.47,0,0,1,37.05,20.58Zm-8.23-.19a6.13,6.13,0,0,0,.26,1.42,3.48,3.48,0,0,0,5.65,1.48,4,4,0,0,0-.15-5.93,3.4,3.4,0,0,0-4.31,0A3.85,3.85,0,0,0,28.82,20.39Z"/><path d="M16.91,34.64l2.19.94a2.93,2.93,0,0,0,3.32-.69,3,3,0,0,0-.91-4.82c-.77-.36-1.55-.69-2.32-1l-.27-.13A3,3,0,0,1,20,28.58,3.75,3.75,0,0,1,23.49,30a4.48,4.48,0,0,1-.76,6.31A3.84,3.84,0,0,1,17,34.78S16.93,34.73,16.91,34.64Z"/></g></svg>