<svg xmlns="http://www.w3.org/2000/svg" viewBox="0 0 723 381"><defs><style>.cls-1{fill:#763c28;}</style></defs><g id="Capa_1" data-name="Capa 1"><path class="cls-1" d="M520.27,290.09l-4.91-14.18,53.94-18.66,20-40-50.2,16.81-4.76-14.23,55.38-18.54,1.13,0A14.5,14.5,0,0,1,603.36,208a13.31,13.31,0,0,1,.74,13.17L582.35,264.7a13.06,13.06,0,0,1-5.72,5.81l-.49.25Z"/><path class="cls-1" d="M203.23,290.09l-55.87-19.33-.49-.25a13.12,13.12,0,0,1-5.72-5.81L119.4,221.21a13.31,13.31,0,0,1,.74-13.17,14.65,14.65,0,0,1,12.53-6.74l1.13,0,55.38,18.54-4.76,14.23-50.2-16.81,20,40,53.94,18.66Z"/><path class="cls-1" d="M362,381c-104.21,0-189-84.79-189-189S257.79,3,362,3,551,87.79,551,192,466.21,381,362,381Zm0-358c-93.19,0-169,75.81-169,169s75.81,169,169,169,169-75.81,169-169S455.19,23,362,23Z"/></g></svg>