<svg xmlns="http://www.w3.org/2000/svg" viewBox="0 0 50 50"><g id="Capa_1" data-name="Capa 1"><path d="M34.27,43.9H15.59a2.5,2.5,0,0,1-2.17-1.33,3.17,3.17,0,0,1,0-3.18L16.72,34,13.54,31.4a2.86,2.86,0,0,1-.94-1.52L7.84,11.44A2.94,2.94,0,0,1,9.72,7.82l6.45-1.69a38.13,38.13,0,0,1,17.52,0l6.45,1.69A2.94,2.94,0,0,1,42,11.44L37.27,29.88a2.88,2.88,0,0,1-1,1.52L33.14,34l3.27,5.41a3.22,3.22,0,0,1,0,3.18A2.52,2.52,0,0,1,34.27,43.9ZM16.74,40.51H33.13l-3-5a3.14,3.14,0,0,1,.61-4L34,28.9l4.63-18L32.83,9.4A35.12,35.12,0,0,0,17,9.4l-5.82,1.53,4.63,18,3.29,2.68a3.14,3.14,0,0,1,.61,4Zm.1-6.73Z"/><path d="M13.12,29.73,4.19,21a2.23,2.23,0,0,1-.78-.86L.24,13.78A2.2,2.2,0,0,1,.49,11.4a2.2,2.2,0,0,1,2.26-.78l8.69,2.06-.59,2.47-8-1.91,2.83,5.67.08,0,9.17,9Z"/><path d="M37.05,29.56l-1.77-1.81,9-8.8.08,0,2.83-5.67-8,1.91-.59-2.47,8.69-2.06a2.23,2.23,0,0,1,2.51,3.16l-3.17,6.36a2.23,2.23,0,0,1-.78.86Z"/></g></svg>