<svg xmlns="http://www.w3.org/2000/svg" viewBox="0 0 50 50"><defs><style>.cls-1{fill:#fff;}</style></defs><g id="Capa_1" data-name="Capa 1"><path class="cls-1" d="M25.28,44.11a18.69,18.69,0,0,1-11.88-4,2.59,2.59,0,0,1-1-2.95,14,14,0,0,1,2.19-4.39,53.31,53.31,0,0,1,8.6-9.41c.5-.44,1-.83,1.54-1.25a.48.48,0,0,1,.71,0c1.07.95,2.17,1.87,3.2,2.87a50.26,50.26,0,0,1,6.5,7.25A16.16,16.16,0,0,1,37.66,37a5.91,5.91,0,0,1,.19,1,2,2,0,0,1-.67,1.67A16.35,16.35,0,0,1,34,41.82,18.1,18.1,0,0,1,25.28,44.11Z"/><path class="cls-1" d="M40,36.69a9.28,9.28,0,0,0-.77-5.27,47.43,47.43,0,0,0-4.84-8.84c-1.17-1.73-2.46-3.39-3.7-5.08-.12-.17-.26-.33-.42-.53,1.94-1.72,3.72-3.63,6.18-4.62,1.5-.61,1.43-.59,2.49.56a17.76,17.76,0,0,1,4.58,9.66,18.69,18.69,0,0,1-3.18,13.68Z"/><path class="cls-1" d="M19.91,17a62.61,62.61,0,0,0-6.11,8.7,31.9,31.9,0,0,0-3.17,6.58,22.13,22.13,0,0,0-.61,3,6.35,6.35,0,0,0,0,1.29c-.1-.14-.19-.24-.27-.35a18.36,18.36,0,0,1-3.26-8.77,18.47,18.47,0,0,1,4.69-14.56c.95-1.08,1.11-1.08,2.44-.57a11.52,11.52,0,0,1,3.16,2C17.85,15.16,18.86,16.07,19.91,17Z"/><path class="cls-1" d="M15.71,9.22a18,18,0,0,1,7.75-2.4c4.06-.25,9,.88,11,2.46,0,0,0,.05,0,.05a14.39,14.39,0,0,0-6.9,1.58c-.68.3-1.36.6-2,.94a1,1,0,0,1-1,0,28.59,28.59,0,0,0-4.91-2.05,10.09,10.09,0,0,0-3.45-.45h-.41Z"/></g></svg>