<svg xmlns="http://www.w3.org/2000/svg" viewBox="0 0 50 50"><g id="Capa_1" data-name="Capa 1"><path d="M25,44.07a18.62,18.62,0,0,1-11.88-4,2.57,2.57,0,0,1-1-2.94,13.91,13.91,0,0,1,2.19-4.39,52.62,52.62,0,0,1,8.6-9.41c.49-.44,1-.83,1.54-1.25a.49.49,0,0,1,.71,0c1.07,1,2.17,1.88,3.2,2.87a49.68,49.68,0,0,1,6.49,7.26,16,16,0,0,1,2.52,4.75,5.74,5.74,0,0,1,.19,1,1.93,1.93,0,0,1-.67,1.66,16,16,0,0,1-3.18,2.17A18.24,18.24,0,0,1,25,44.07Z"/><path d="M39.66,36.65a9.2,9.2,0,0,0-.78-5.27,46.81,46.81,0,0,0-4.83-8.84c-1.17-1.74-2.46-3.39-3.7-5.08-.12-.17-.26-.33-.42-.53,1.94-1.72,3.72-3.63,6.18-4.62,1.5-.61,1.43-.6,2.49.56a17.76,17.76,0,0,1,4.58,9.66A18.66,18.66,0,0,1,40,36.21C39.91,36.33,39.82,36.44,39.66,36.65Z"/><path d="M19.6,16.94a63.54,63.54,0,0,0-6.12,8.7,32.38,32.38,0,0,0-3.16,6.58,23.08,23.08,0,0,0-.62,3,7.26,7.26,0,0,0,.05,1.29l-.27-.36a18.18,18.18,0,0,1-3.26-8.76,18.47,18.47,0,0,1,4.69-14.56c.95-1.08,1.11-1.09,2.44-.57a11.52,11.52,0,0,1,3.16,2C17.54,15.12,18.55,16,19.6,16.94Z"/><path d="M15.4,9.17a18.25,18.25,0,0,1,7.75-2.4c4.06-.24,9,.89,11,2.47,0,0,0,0,0,0a14.47,14.47,0,0,0-6.9,1.57c-.68.3-1.36.61-2,.94a.94.94,0,0,1-1,0,27.82,27.82,0,0,0-4.91-2,9.85,9.85,0,0,0-3.45-.45h-.41Z"/></g></svg>